<?xml version="1.0" encoding="UTF-8"?>
<svg xmlns="http://www.w3.org/2000/svg" version="1.1" width="200" height="200" style="background: transparent;">
<path d="M0 0 C66 0 132 0 200 0 C200 66 200 132 200 200 C134 200 68 200 0 200 C0 134 0 68 0 0 Z " fill="#FEFEFD" transform="translate(0,0)"/>
<path d="M0 0 C7.28813559 0.48587571 7.28813559 0.48587571 10.25 2.625 C16 10.42857143 16 10.42857143 16 15 C17.32 15.33 18.64 15.66 20 16 C20 16.66 20 17.32 20 18 C20.99 18 21.98 18 23 18 C23.28875 18.804375 23.5775 19.60875 23.875 20.4375 C24.73262568 23.1326468 24.73262568 23.1326468 27 24 C27 22.02 27 20.04 27 18 C28.98 17.34 30.96 16.68 33 16 C33 14.02 33 12.04 33 10 C36.465 9.505 36.465 9.505 40 9 C39.505 5.535 39.505 5.535 39 2 C39.66 2 40.32 2 41 2 C41 1.34 41 0.68 41 0 C43.3125 -0.3125 43.3125 -0.3125 46 0 C47.04704099 1.63752342 48.03567924 3.31243867 49 5 C50.66328195 7.28126586 52.42660206 9.48107732 54.1875 11.6875 C54.67653809 12.30471924 55.16557617 12.92193848 55.66943359 13.55786133 C57.110011 15.37427231 58.55458471 17.1874379 60 19 C60.72058594 19.9075 61.44117188 20.815 62.18359375 21.75 C66.34714435 26.977476 70.57152159 32.15272958 74.828125 37.3046875 C77.47373437 40.58790777 79.95538679 43.97907619 82.39453125 47.41796875 C84.09919726 49.46792566 84.09919726 49.46792566 88 49 C89.67640767 51.32117986 90.83953895 53.63896264 92 56.25 C92.94279946 58.35137474 92.94279946 58.35137474 96 59 C96.125 64.75 96.125 64.75 95 67 C93.02 67 91.04 67 89 67 C89 66.34 89 65.68 89 65 C87.02 64.505 87.02 64.505 85 64 C85 63.34 85 62.68 85 62 C84.34 62 83.68 62 83 62 C83 63.32 83 64.64 83 66 C76.375 67.125 76.375 67.125 73 66 C73 65.01 73 64.02 73 63 C72.01 63 71.02 63 70 63 C69.01 64.98 69.01 64.98 68 67 C66.35 67 64.7 67 63 67 C63.27714844 67.54269531 63.55429688 68.08539063 63.83984375 68.64453125 C64.20207031 69.35996094 64.56429687 70.07539062 64.9375 70.8125 C65.29714844 71.52019531 65.65679687 72.22789063 66.02734375 72.95703125 C67 75 67 75 68 78 C68.99 78 69.98 78 71 78 C71.33 78.99 71.66 79.98 72 81 C72.66 81.33 73.32 81.66 74 82 C74.4140625 84.28515625 74.4140625 84.28515625 74.625 87.0625 C74.73714844 88.44115234 74.73714844 88.44115234 74.8515625 89.84765625 C74.92503906 90.91306641 74.92503906 90.91306641 75 92 C72 93 72 93 69.5625 91.8125 C67.08512378 90.06020951 65.0639593 88.21684517 63 86 C63 88.31 63 90.62 63 93 C60.890625 93.45703125 60.890625 93.45703125 58 93 C55.57296475 90.84006619 53.70091635 88.27502507 51.75 85.6875 C50.59136704 84.20425426 49.43251231 82.72118173 48.2734375 81.23828125 C47.71237305 80.50947754 47.15130859 79.78067383 46.57324219 79.02978516 C44.56057419 76.43305615 42.47404979 73.90219533 40.375 71.375 C36.40720633 66.54016994 32.54591064 61.62578584 28.71630859 56.68115234 C26.59710579 53.95978865 24.43810833 51.43167532 22 49 C20.37624444 46.97102402 18.77527174 44.93170958 17.1875 42.875 C12.11136814 36.34804593 6.88383922 29.9557849 1.59643555 23.59912109 C1.02707275 22.91285645 0.45770996 22.2265918 -0.12890625 21.51953125 C-0.63494385 20.91214111 -1.14098145 20.30475098 -1.66235352 19.67895508 C-4.70167904 15.86412726 -5.2142124 13.81977898 -5 9 C-3.35 8.67 -1.7 8.34 0 8 C0 5.36 0 2.72 0 0 Z " fill="#CEF6FB" transform="translate(76,48)"/>
<path d="M0 0 C7.28813559 0.48587571 7.28813559 0.48587571 10.25 2.625 C13.22094515 6.65699699 15.50320358 10.61419945 17.1875 15.3125 C18.99524158 19.68201441 22.21502598 22.72409176 25.41015625 26.13671875 C28.24758103 29.27372081 30.85033409 32.53183813 33.4375 35.875 C36.8372106 40.26103912 40.28888424 44.57541995 43.875 48.8125 C48.5506665 54.3667153 52.92805595 60.12068771 57.30615234 65.91088867 C60.80211422 70.5081254 64.45318703 74.8739403 68.33984375 79.1484375 C70.89243686 81.99532958 73.03547781 84.70467246 75 88 C74.8125 90.9375 74.8125 90.9375 74 93 C69.00724943 91.72278474 66.42388092 89.82669043 63 86 C63 88.31 63 90.62 63 93 C60.890625 93.45703125 60.890625 93.45703125 58 93 C55.57296475 90.84006619 53.70091635 88.27502507 51.75 85.6875 C50.59136704 84.20425426 49.43251231 82.72118173 48.2734375 81.23828125 C47.71237305 80.50947754 47.15130859 79.78067383 46.57324219 79.02978516 C44.56057419 76.43305615 42.47404979 73.90219533 40.375 71.375 C36.40720633 66.54016994 32.54591064 61.62578584 28.71630859 56.68115234 C26.59710579 53.95978865 24.43810833 51.43167532 22 49 C20.37624444 46.97102402 18.77527174 44.93170958 17.1875 42.875 C12.11136814 36.34804593 6.88383922 29.9557849 1.59643555 23.59912109 C1.02707275 22.91285645 0.45770996 22.2265918 -0.12890625 21.51953125 C-0.63494385 20.91214111 -1.14098145 20.30475098 -1.66235352 19.67895508 C-4.70167904 15.86412726 -5.2142124 13.81977898 -5 9 C-3.35 8.67 -1.7 8.34 0 8 C0 5.36 0 2.72 0 0 Z " fill="#D7F5FB" transform="translate(76,48)"/>
<path d="M0 0 C6.24965643 1.20335 8.85324452 3.34176016 12.6875 8.3125 C13.37682617 9.16618164 13.37682617 9.16618164 14.08007812 10.03710938 C14.97909071 11.15414214 15.86987227 12.27785969 16.75146484 13.40869141 C17.91618461 14.8931739 19.12269539 16.34460168 20.33203125 17.79296875 C22 20 22 20 22 22 C22.66 22 23.32 22 24 22 C25.28369141 23.47314453 25.28369141 23.47314453 26.7265625 25.5078125 C29.80572814 29.75216878 33.05171456 33.82039277 36.375 37.875 C37.51853216 39.27579437 38.66176191 40.67683567 39.8046875 42.078125 C40.3522168 42.74908203 40.89974609 43.42003906 41.46386719 44.11132812 C44.11576442 47.37182987 46.73452751 50.6584288 49.34375 53.953125 C50.84716482 55.81111878 52.41041644 57.591134 54 59.375 C56 62 56 62 56 66 C54.68 66.33 53.36 66.66 52 67 C44.86494708 58.69187262 37.97324194 50.23523019 31.24609375 41.59423828 C27.57476647 36.89718359 23.82379308 32.26209773 20.08203125 27.62109375 C14.61755212 20.82594306 9.29732528 13.9256015 4 7 C3.67 7.99 3.34 8.98 3 10 C2.01 10 1.02 10 0 10 C0.66644531 10.77601562 1.33289063 11.55203125 2.01953125 12.3515625 C7.39707778 18.64311446 12.6391803 25.01297652 17.72290039 31.54418945 C21.3394127 36.1828292 25.03271782 40.75435325 28.75 45.3125 C29.84116116 46.65884175 30.93230751 48.00519549 32.0234375 49.3515625 C33.79699941 51.53622235 35.58966863 53.69271752 37.4140625 55.8359375 C38.06117187 56.61195313 38.70828125 57.38796875 39.375 58.1875 C39.91898437 58.82042969 40.46296875 59.45335937 41.0234375 60.10546875 C42.3616443 62.70158994 41.80256039 64.26657372 41 67 C36.82127577 65.4378601 34.48505404 62.35611225 31.75 59 C31.27054932 58.4220166 30.79109863 57.8440332 30.29711914 57.24853516 C28.85621684 55.50581413 27.42634309 53.75464835 26 52 C25.19949219 51.01773438 24.39898437 50.03546875 23.57421875 49.0234375 C20.92652969 45.74165837 18.33990636 42.50985954 16 39 C13.18444653 37.82202611 13.18444653 37.82202611 10 38 C7.1028059 40.31273442 7.1028059 40.31273442 5 43 C4.34 42.67 3.68 42.34 3 42 C3 41.34 3 40.68 3 40 C2.34 40 1.68 40 1 40 C1 39.34 1 38.68 1 38 C-1.44146208 38.94945748 -3.80817295 39.8984445 -6.125 41.125 C-8 42 -8 42 -11 42 C-11.33 40.68 -11.66 39.36 -12 38 C-12.99 38 -13.98 38 -15 38 C-16.6875 36.5 -16.6875 36.5 -18 35 C-18.33 37.31 -18.66 39.62 -19 42 C-20.99954746 42.04254356 -23.00041636 42.04080783 -25 42 C-26 41 -26 41 -26.1875 38.0625 C-26 35 -26 35 -24 33 C-22.68 33 -21.36 33 -20 33 C-20 30.69 -20 28.38 -20 26 C-19.34 26 -18.68 26 -18 26 C-18 25.01 -18 24.02 -18 23 C-16.68 23 -15.36 23 -14 23 C-14.33 22.01 -14.66 21.02 -15 20 C-14.5 17.875 -14.5 17.875 -13 16 C-9.375 15.25 -9.375 15.25 -6 15 C-6.226875 14.071875 -6.45375 13.14375 -6.6875 12.1875 C-7 9 -7 9 -5.8125 7.125 C-4 6 -4 6 0 6 C0 4.02 0 2.04 0 0 Z " fill="#E9FDFD" transform="translate(55,74)"/>
<path d="M0 0 C4.33098616 0.48620743 6.04036383 1.61677267 8.8125 4.9375 C9.85470703 6.17306641 9.85470703 6.17306641 10.91796875 7.43359375 C13.49621081 10.61165198 16.0667156 13.79416114 18.60546875 17.00390625 C21.67731073 20.8474671 24.80595531 24.64253115 27.9375 28.4375 C28.54843506 29.17846924 29.15937012 29.91943848 29.78881836 30.68286133 C32.36341082 33.80503373 34.9391285 36.92627364 37.515625 40.046875 C42.5612936 46.18153682 47.48309778 52.40597317 52.37890625 58.66015625 C54.56801512 61.45467946 56.77740811 64.23198679 59 67 C59.61746094 67.77730469 60.23492187 68.55460937 60.87109375 69.35546875 C62.5502357 71.44130196 64.25295228 73.49875684 65.97265625 75.55078125 C67.00288126 76.80445985 68.03283048 78.05836513 69.0625 79.3125 C69.56458984 79.89966797 70.06667969 80.48683594 70.58398438 81.09179688 C74.04274488 85.34835868 74.04274488 85.34835868 73.80859375 88.91796875 C73.54175781 89.60503906 73.27492188 90.29210937 73 91 C68.84620116 89.44111512 66.53063745 86.40291375 63.8125 83.0625 C63.33127686 82.48201904 62.85005371 81.90153809 62.35424805 81.3034668 C60.89606872 79.54108898 59.44748805 77.77116246 58 76 C57.195625 75.02546875 56.39125 74.0509375 55.5625 73.046875 C51.3325372 67.90629521 47.1662857 62.71638581 43.015625 57.51171875 C40.94439723 54.93071206 38.85030628 52.36988732 36.75 49.8125 C29.85271981 41.39972744 23.00969335 32.93447178 16.375 24.3125 C12.78986797 19.66772304 9.01235462 15.18703616 5.234375 10.69921875 C4.49703125 9.80847656 3.7596875 8.91773438 3 8 C2.40703125 7.30519531 1.8140625 6.61039063 1.203125 5.89453125 C0 4 0 4 0 0 Z " fill="#386695" transform="translate(77,50)"/>
<path d="M0 0 C3.61053853 0.22964556 4.79521152 0.7777381 7.2890625 3.484375 C8.08014114 4.56391512 8.85805984 5.65317956 9.625 6.75 C10.50098813 7.94615294 11.37999021 9.14010346 12.26171875 10.33203125 C12.93726807 11.24976318 12.93726807 11.24976318 13.62646484 12.18603516 C15.78342815 15.0346376 18.10370726 17.73339605 20.4375 20.4375 C24.74789467 25.46160168 28.87223673 30.60393158 32.9362793 35.82861328 C35.97021668 39.71861064 39.07534993 43.536618 42.25 47.3125 C46.28749257 52.12177235 50.18235965 57.01535584 54 62 C55.18548365 63.5432177 56.3729965 65.08487865 57.5625 66.625 C58.13097656 67.36492187 58.69945312 68.10484375 59.28515625 68.8671875 C60.93930456 70.92451091 62.69569568 72.82485312 64.5 74.75 C67.01675258 77.60631443 67.01675258 77.60631443 66.875 80.9375 C66.58625 81.618125 66.2975 82.29875 66 83 C62.6700893 82.78367169 61.85786282 81.8405852 59.58984375 79.296875 C58.69649731 78.12154342 57.81295752 76.93871625 56.9375 75.75 C55.96054475 74.46316186 54.98132041 73.1780437 54 71.89453125 C53.50242188 71.24178223 53.00484375 70.5890332 52.4921875 69.91650391 C50.23067255 67.01190765 47.84070275 64.22502667 45.4375 61.4375 C41.19708319 56.49781302 37.17062552 51.42865068 33.25952148 46.22436523 C31.30292786 43.63182746 29.29463952 41.2887407 27 39 C25.37624444 36.97102402 23.77527174 34.93170958 22.1875 32.875 C17.11136814 26.34804593 11.88383922 19.9557849 6.59643555 13.59912109 C5.74239136 12.56972412 5.74239136 12.56972412 4.87109375 11.51953125 C4.36505615 10.91214111 3.85901855 10.30475098 3.33764648 9.67895508 C0.58238783 6.2206755 -0.23659479 4.37700357 0 0 Z " fill="#376593" transform="translate(71,58)"/>
<path d="M0 0 C3.71593713 0.22094761 4.9205932 0.92130537 7.61328125 3.58984375 C8.52581023 4.69529499 9.42495875 5.81188812 10.3125 6.9375 C10.79323975 7.526521 11.27397949 8.11554199 11.76928711 8.72241211 C13.1923301 10.47175191 14.59806399 12.23372483 16 14 C16.70640625 14.87914063 17.4128125 15.75828125 18.140625 16.6640625 C19.42925283 18.27222812 20.7130637 19.88426467 21.9921875 21.5 C24.18105087 24.22543298 26.43120177 26.89266801 28.6875 29.5625 C32.80443265 34.47115047 36.70265249 39.51252274 40.5625 44.625 C44.87674663 50.33907527 49.33458523 55.72346738 54.18359375 60.9921875 C56.52673588 63.58224139 58.40549274 65.88346309 60 69 C59.75 71.875 59.75 71.875 59 74 C54.71469263 72.41960296 52.27029656 69.15680697 49.4375 65.75 C48.9122876 65.12810791 48.3870752 64.50621582 47.84594727 63.86547852 C43.81407253 59.05929026 39.92516872 54.147265 36.08251953 49.18920898 C32.93040807 45.1352781 29.65985477 41.2061727 26.3125 37.3125 C22.29382692 32.63060534 18.61749361 27.80334667 15.04296875 22.76953125 C11.97027892 18.60406836 8.63987943 14.67641805 5.296875 10.7265625 C4.53890625 9.82679687 3.7809375 8.92703125 3 8 C2.22140625 7.12085937 1.4428125 6.24171875 0.640625 5.3359375 C0.09921875 4.56507812 -0.4421875 3.79421875 -1 3 C-0.67 2.01 -0.34 1.02 0 0 Z " fill="#319BBF" transform="translate(64,67)"/>
<path d="M0 0 C0.27457031 0.58918213 0.54914063 1.17836426 0.83203125 1.78540039 C1.95515919 3.91497681 3.15340791 5.58611606 4.6875 7.43359375 C5.21674072 8.07643311 5.74598145 8.71927246 6.29125977 9.3815918 C7.13708618 10.39926636 7.13708618 10.39926636 8 11.4375 C13.08115027 17.61509784 18.03420338 23.86617948 22.87890625 30.23046875 C24.30748996 32.09578339 25.77499191 33.93185133 27.27734375 35.73828125 C29 38 29 38 29 40 C29.99 40.33 30.98 40.66 32 41 C33.73116853 43.02810996 35.34238002 45.05679437 36.9375 47.1875 C40.89928999 52.36310647 44.97489717 57.39237929 49.25 62.3125 C53.67493215 67.41447871 57.94150912 72.5982058 62 78 C59 78 59 78 56 76 C55.67 77.65 55.34 79.3 55 81 C54.731875 80.4225 54.46375 79.845 54.1875 79.25 C50.53679981 72.33288385 44.69646146 66.40609336 39.69775391 60.44775391 C36.61076752 56.75957427 33.63066476 53.00444403 30.6953125 49.1953125 C25.31480012 42.2279209 19.7182475 35.46148368 14.01025391 28.76245117 C10.20238518 24.27779068 6.58366847 19.66535318 3 15 C-0.72634398 10.06542243 -0.72634398 10.06542243 -6 7 C-4.35 6.67 -2.7 6.34 -1 6 C-0.67 4.02 -0.34 2.04 0 0 Z " fill="#D0F5FA" transform="translate(70,59)"/>
<path d="M0 0 C2.56608724 1.28304362 2.74547755 2.45498314 4 5 C5.11010812 6.48570862 6.26081196 7.94144659 7.4375 9.375 C10.83270523 13.55276614 14.18163438 17.76126615 17.5 22 C24.23563215 30.58249903 31.05699897 39.08413063 38 47.5 C45.17831006 56.20155636 52.30335417 64.91894239 59 74 C57.68 74 56.36 74 55 74 C55 73.01 55 72.02 55 71 C54.01 70.67 53.02 70.34 52 70 C51.505 71.485 51.505 71.485 51 73 C50.34 73 49.68 73 49 73 C48.76152344 72.28714844 48.52304688 71.57429688 48.27734375 70.83984375 C46.79285049 67.5394566 44.9324596 65.29648539 42.5625 62.5625 C41.65706275 61.50413411 40.75348768 60.44417292 39.8515625 59.3828125 C39.38266602 58.83141602 38.91376953 58.28001953 38.43066406 57.71191406 C35.55255763 54.26800923 32.81745497 50.71092332 30.06152344 47.16918945 C26.33643834 42.39434395 22.49019227 37.73619961 18.58203125 33.109375 C17 31 17 31 17 29 C16.34 29 15.68 29 15 29 C13.58984375 27.41796875 13.58984375 27.41796875 11.9375 25.1875 C11.32132813 24.37796875 10.70515625 23.5684375 10.0703125 22.734375 C9.38710937 21.83203125 8.70390625 20.9296875 8 20 C6.45236883 17.96775706 4.88976953 15.94682686 3.3125 13.9375 C2.58675781 12.99777344 1.86101563 12.05804688 1.11328125 11.08984375 C-0.97867507 8.53123142 -0.97867507 8.53123142 -5 9 C-5 8.34 -5 7.68 -5 7 C-4.0409375 6.6596875 -4.0409375 6.6596875 -3.0625 6.3125 C-0.72806339 5.14749104 -0.72806339 5.14749104 -0.25 2.375 C-0.1675 1.59125 -0.085 0.8075 0 0 Z " fill="#D0F7FC" transform="translate(62,67)"/>
<path d="M0 0 C3.43098275 1.23613876 5.32072899 4.22058047 7.54101562 6.98535156 C8.01410156 7.55898437 8.4871875 8.13261719 8.97460938 8.72363281 C9.90374564 9.85352429 10.82709141 10.98820617 11.74414062 12.12792969 C12.94015664 13.61034111 14.16138041 15.07232021 15.38476562 16.53222656 C17.04101562 18.73535156 17.04101562 18.73535156 17.04101562 20.73535156 C17.70101562 20.73535156 18.36101562 20.73535156 19.04101562 20.73535156 C20.32470703 22.20849609 20.32470703 22.20849609 21.76757812 24.24316406 C24.84674376 28.48752034 28.09273019 32.55574433 31.41601562 36.61035156 C32.55954779 38.01114594 33.70277754 39.41218724 34.84570312 40.81347656 C35.39323242 41.48443359 35.94076172 42.15539062 36.50488281 42.84667969 C39.15678005 46.10718144 41.77554313 49.39378037 44.38476562 52.68847656 C45.88818044 54.54647035 47.45143206 56.32648557 49.04101562 58.11035156 C51.04101562 60.73535156 51.04101562 60.73535156 51.04101562 64.73535156 C49.06101562 65.23035156 49.06101562 65.23035156 47.04101562 65.73535156 C39.90596271 57.42722418 33.01425757 48.97058176 26.28710938 40.32958984 C22.6157821 35.63253515 18.8648087 30.99744929 15.12304688 26.35644531 C12.18011349 22.69686946 9.25428443 19.03062123 6.41992188 15.28613281 C5.97310059 14.69743408 5.5262793 14.10873535 5.06591797 13.50219727 C4.19098499 12.34632105 3.32004312 11.18741018 2.45361328 10.02514648 C0.44331165 7.37049667 -1.15547129 5.60436028 -3.95898438 3.73535156 C-3.95898438 2.74535156 -3.95898438 1.75535156 -3.95898438 0.73535156 C-1.95898438 -0.26464844 -1.95898438 -0.26464844 0 0 Z " fill="#299DC7" transform="translate(59.958984375,75.2646484375)"/>
<path d="M0 0 C4.00792301 0.49992399 5.75969374 1.28432863 8.296875 4.421875 C9.14572266 5.46601562 9.14572266 5.46601562 10.01171875 6.53125 C10.58535156 7.2634375 11.15898438 7.995625 11.75 8.75 C12.33910156 9.46671875 12.92820312 10.1834375 13.53515625 10.921875 C16.52059017 14.65538317 18.29992664 17.17889779 19 22 C16.83032311 22.95465783 15.43671207 23.14401212 13.17578125 22.3984375 C11.4315257 21.64129615 9.71372869 20.82390802 8 20 C7.731875 20.804375 7.46375 21.60875 7.1875 22.4375 C6.795625 23.283125 6.40375 24.12875 6 25 C3 26 3 26 0 25 C0 24.01 0 23.02 0 22 C-1.32 21.67 -2.64 21.34 -4 21 C-4 20.34 -4 19.68 -4 19 C-4.66 19 -5.32 19 -6 19 C-6.33 20.32 -6.66 21.64 -7 23 C-9.375 23.125 -9.375 23.125 -12 23 C-12.66 22.34 -13.32 21.68 -14 21 C-13.625 18.875 -13.625 18.875 -13 17 C-11.02 17 -9.04 17 -7 17 C-7.20625 15.72125 -7.4125 14.4425 -7.625 13.125 C-7.9765625 10.9453125 -7.9765625 10.9453125 -8 9 C-7.34 8.34 -6.68 7.68 -6 7 C-4.68 7 -3.36 7 -2 7 C-1.34 4.69 -0.68 2.38 0 0 Z " fill="#D2F8FB" transform="translate(65,118)"/>
<path d="M0 0 C3.51560956 0.26180071 4.81380461 0.81565423 7.359375 3.3359375 C8.14828125 4.33882812 8.9371875 5.34171875 9.75 6.375 C10.17829102 6.91157227 10.60658203 7.44814453 11.04785156 8.00097656 C11.93637152 9.11440518 12.82013639 10.23164423 13.69921875 11.35253906 C15.67377291 13.85334452 17.71631127 16.29720649 19.75 18.75 C22.19840627 21.74439234 24.59007835 24.75444987 26.875 27.875 C29.49343564 31.42395409 32.32329681 34.77423514 35.1875 38.125 C39.23029867 42.88164581 43.25459961 47.65188828 47.1875 52.5 C47.91005981 53.36262451 47.91005981 53.36262451 48.6472168 54.24267578 C50.73330049 56.84560094 51.95289457 58.54485147 52.30078125 61.90625 C52.15189453 62.94265625 52.15189453 62.94265625 52 64 C50.68 64 49.36 64 48 64 C46.12762281 61.97589046 44.5486258 60.03025926 42.9375 57.8125 C41.96451065 56.52172243 40.98918878 55.2327003 40.01171875 53.9453125 C39.51462402 53.28692383 39.0175293 52.62853516 38.50537109 51.95019531 C36.18518595 48.9444154 33.72510764 46.06595215 31.25 43.1875 C25.31989387 36.24964984 19.75172733 29.08803225 14.359375 21.7265625 C13.06644076 20.00928009 13.06644076 20.00928009 11.65234375 18.67578125 C9.15746859 16.14551779 7.00039632 13.35589117 4.8125 10.5625 C4.34908203 9.98951172 3.88566406 9.41652344 3.40820312 8.82617188 C0.8247299 5.51978272 0 4.33284708 0 0 Z " fill="#279CC1" transform="translate(118,50)"/>
<path d="M0 0 C3.17919699 0.2729241 4.12625748 1.1283038 6.41015625 3.44921875 C7.30437608 4.52028939 8.18784979 5.60038987 9.0625 6.6875 C9.54219238 7.26910889 10.02188477 7.85071777 10.51611328 8.44995117 C14.32285562 13.09124378 18.03557223 17.80871708 21.72387695 22.54443359 C25.33894758 27.18387033 29.03288947 31.75456372 32.75 36.3125 C33.84116116 37.65884175 34.93230751 39.00519549 36.0234375 40.3515625 C37.79699941 42.53622235 39.58966863 44.69271752 41.4140625 46.8359375 C42.06117187 47.61195313 42.70828125 48.38796875 43.375 49.1875 C43.91898438 49.82042969 44.46296875 50.45335937 45.0234375 51.10546875 C46.3616443 53.70158994 45.80256039 55.26657372 45 58 C40.82120674 56.4378343 38.48518593 53.35599171 35.75 50 C35.26547363 49.41621582 34.78094727 48.83243164 34.28173828 48.23095703 C30.78892466 44.00840516 27.35307369 39.73983131 23.94921875 35.4453125 C21.88732225 32.85864475 19.7904814 30.30335441 17.6875 27.75 C12.35451023 21.24838986 7.15952014 14.63971034 2 8 C1.39285156 7.25105469 0.78570312 6.50210938 0.16015625 5.73046875 C-1 4 -1 4 -0.6875 1.75 C-0.460625 1.1725 -0.23375 0.595 0 0 Z " fill="#289CC4" transform="translate(51,83)"/>
<path d="M0 0 C4.87507441 4.57038226 8.87444032 9.75694178 13 15 C14.33175595 16.66792735 15.6650681 18.33461344 17 20 C18.94330231 22.42818819 20.88593345 24.85686724 22.82421875 27.2890625 C25.96671683 31.22871418 29.12269197 35.15499932 32.32421875 39.046875 C32.90921143 39.76020996 33.4942041 40.47354492 34.09692383 41.20849609 C35.26415203 42.63070989 36.4344678 44.0503964 37.6081543 45.46728516 C38.14738525 46.12519043 38.68661621 46.7830957 39.2421875 47.4609375 C39.96704346 48.33951416 39.96704346 48.33951416 40.70654297 49.23583984 C42.05596857 51.07633614 43.0387618 52.93404674 44 55 C43.01 55 42.02 55 41 55 C41.04125 55.78375 41.0825 56.5675 41.125 57.375 C41 60 41 60 39 62 C37.68 62 36.36 62 35 62 C35.495 61.01 35.495 61.01 36 60 C36.66 60 37.32 60 38 60 C37.5449763 55.13474663 36.48217912 52.89323901 33.0625 49.4375 C29.4520827 45.62682184 26.15638692 41.7455446 23 37.5625 C19.26948607 32.64090976 15.44624617 27.81950525 11.515625 23.0546875 C8.30452348 19.1554928 5.12091947 15.23430372 1.9375 11.3125 C1.35250732 10.59215576 0.76751465 9.87181152 0.16479492 9.12963867 C-1.22365121 7.41990607 -2.61191473 5.71002557 -4 4 C-3.34 3.67 -2.68 3.34 -2 3 C-1.34 3.33 -0.68 3.66 0 4 C0 2.68 0 1.36 0 0 Z " fill="#CEF5FA" transform="translate(58,80)"/>
<path d="M0 0 C3.36890385 0.43513371 4.77580041 1.47508385 6.84765625 4.10546875 C7.36481201 4.75225586 7.88196777 5.39904297 8.41479492 6.06542969 C9.23040894 7.11585449 9.23040894 7.11585449 10.0625 8.1875 C10.63395752 8.90711914 11.20541504 9.62673828 11.79418945 10.36816406 C13.53970285 12.57093371 15.27136617 14.78396942 17 17 C17.98141912 18.25157796 18.96316813 19.50289734 19.9453125 20.75390625 C21.31075454 22.49392582 22.67540661 24.23450733 24.03637695 25.97802734 C27.03942203 29.81546522 30.11725411 33.58042544 33.25 37.3125 C34.05566406 38.27800781 34.86132812 39.24351563 35.69140625 40.23828125 C37.19199757 42.03340488 38.69945665 43.82281761 40.21484375 45.60546875 C40.86582031 46.39566406 41.51679688 47.18585938 42.1875 48 C42.75855469 48.680625 43.32960937 49.36125 43.91796875 50.0625 C45 52 45 52 44.67578125 54.25 C44.34126953 55.11625 44.34126953 55.11625 44 56 C39.22024637 55.15685223 37.13622699 52.09909955 34.1875 48.5 C33.65125 47.85925537 33.115 47.21851074 32.5625 46.55834961 C29.25849991 42.5908495 26.03173944 38.56870507 22.8984375 34.46484375 C20.34732665 31.15259901 17.73691633 27.8893882 15.125 24.625 C14.61090576 23.98006592 14.09681152 23.33513184 13.56713867 22.6706543 C11.16855003 19.6696752 8.75394491 16.68949634 6.26171875 13.765625 C5.45347656 12.81171875 4.64523438 11.8578125 3.8125 10.875 C3.09707031 10.04742187 2.38164063 9.21984375 1.64453125 8.3671875 C-0.11762682 5.83068443 -0.72994919 4.06057584 -1 1 C-0.67 0.67 -0.34 0.34 0 0 Z " fill="#279EC5" transform="translate(112,58)"/>
<path d="M0 0 C2.1171875 -0.4453125 2.1171875 -0.4453125 5 0 C7.38847916 2.09332794 9.21585875 4.59786585 11.125 7.125 C11.9754187 8.21119629 11.9754187 8.21119629 12.84301758 9.31933594 C14.57539303 11.53619543 16.28787286 13.76748619 18 16 C19.43955495 17.84534489 20.88489766 19.68598628 22.33203125 21.52539062 C23.23192849 22.67036075 24.12909227 23.81748481 25.0234375 24.96679688 C27.25349031 27.8250799 29.51981893 30.63869537 31.87109375 33.3984375 C32.33362549 33.94209961 32.79615723 34.48576172 33.27270508 35.04589844 C34.54235563 36.52849453 35.82163522 38.0028292 37.1015625 39.4765625 C38.84621316 41.79558375 39.61451532 43.16868146 40 46 C38.3125 46.8125 38.3125 46.8125 36 47 C27.71521721 39.44339878 20.92695141 30.00341922 14.05859375 21.16259766 C11.8663438 18.34633942 9.6525482 15.56235768 7.33984375 12.84375 C6.52644531 11.8846875 5.71304688 10.925625 4.875 9.9375 C4.15054688 9.10089844 3.42609375 8.26429687 2.6796875 7.40234375 C0.90188866 4.85967797 0.35928687 3.05393844 0 0 Z " fill="#249CC4" transform="translate(104,67)"/>
<path d="M0 0 C3.88943637 3.73414127 7.25897847 7.68095146 10.5625 11.9375 C11.26536133 12.82985352 11.26536133 12.82985352 11.98242188 13.74023438 C14.83486765 17.39056708 17.4783873 21.11374984 20 25 C19.278125 24.896875 18.55625 24.79375 17.8125 24.6875 C13.87958411 25.12449065 12.53678077 27.10082197 10 30 C8 29 8 29 6.7265625 26.34765625 C4.4087445 21.85360642 1.24013111 18.48197065 -2.1484375 14.76757812 C-4.92741442 11.61881799 -6.79861315 9.28334346 -7 5 C-6.67 4.67 -6.34 4.34 -6 4 C-3.66055264 4.28730055 -1.3260857 4.61936779 1 5 C0.67 3.35 0.34 1.7 0 0 Z " fill="#D4F8FC" transform="translate(50,87)"/>
<path d="M0 0 C2.67184331 2.59034918 5.05550932 5.23024968 7.3125 8.1875 C7.91578125 8.97253906 8.5190625 9.75757812 9.140625 10.56640625 C9.75421875 11.36949219 10.3678125 12.17257813 11 13 C12.18524784 14.54339882 13.37270179 16.08510631 14.5625 17.625 C15.13097656 18.36492187 15.69945312 19.10484375 16.28515625 19.8671875 C17.93930456 21.92451091 19.69569568 23.82485312 21.5 25.75 C24.01675258 28.60631443 24.01675258 28.60631443 23.875 31.9375 C23.441875 32.9584375 23.441875 32.9584375 23 34 C18.27360879 33.1678095 16.48101833 30.24633282 13.75 26.5625 C12.78037413 25.29003969 11.81031847 24.01790678 10.83984375 22.74609375 C10.36272949 22.11429199 9.88561523 21.48249023 9.39404297 20.83154297 C7.41089836 18.22601742 5.36557869 15.67579473 3.3125 13.125 C2.34763672 11.92230469 2.34763672 11.92230469 1.36328125 10.6953125 C0.91339844 10.13585937 0.46351562 9.57640625 0 9 C0.34804687 8.39671875 0.69609375 7.7934375 1.0546875 7.171875 C2.3116501 4.9351845 2.3116501 4.9351845 1.125 2.25 C0.75375 1.5075 0.3825 0.765 0 0 Z " fill="#299BC0" transform="translate(114,107)"/>
<path d="M0 0 C5.1230199 4.9969702 9.5325701 10.42158053 14 16 C14.64324219 16.76441406 15.28648438 17.52882812 15.94921875 18.31640625 C20.02804213 23.32698882 20.02804213 23.32698882 19.875 27 C19.441875 27.99 19.441875 27.99 19 29 C14.61796732 27.41412151 12.1310643 23.97357816 9.25 20.5 C8.7250293 19.87722168 8.20005859 19.25444336 7.65917969 18.61279297 C3.35021497 13.48024937 -0.86714534 8.27546742 -5 3 C-4.360625 2.87625 -3.72125 2.7525 -3.0625 2.625 C-2.0415625 2.315625 -2.0415625 2.315625 -1 2 C-0.67 1.34 -0.34 0.68 0 0 Z " fill="#369FC2" transform="translate(104,112)"/>
<path d="M0 0 C2.7265625 -0.296875 2.7265625 -0.296875 6 0 C8.3359375 2.046875 8.3359375 2.046875 10.375 4.75 C11.06335938 5.63171875 11.75171875 6.5134375 12.4609375 7.421875 C14 10 14 10 14 14 C12.33157466 13.67558396 10.66519519 13.34060811 9 13 C8.29875 12.87625 7.5975 12.7525 6.875 12.625 C4.6170887 11.8723629 3.54543588 10.77725127 2 9 C1.67 11.31 1.34 13.62 1 16 C-0.99954746 16.04254356 -3.00041636 16.04080783 -5 16 C-6 15 -6 15 -6.1875 12.0625 C-6 9 -6 9 -4 7 C-2.68 7 -1.36 7 0 7 C0 4.69 0 2.38 0 0 Z " fill="#D1F8FC" transform="translate(35,100)"/>
<path d="M0 0 C3.66662108 0.22103744 4.82241509 0.80771435 7.359375 3.5546875 C8.16929422 4.65194877 8.96554561 5.75939131 9.75 6.875 C10.6155624 8.05457962 11.48278538 9.23294231 12.3515625 10.41015625 C12.78758789 11.00715332 13.22361328 11.60415039 13.67285156 12.21923828 C16.94634909 16.61160233 20.50318639 20.78524157 24 25 C22.35 26.32 20.7 27.64 19 29 C16.95571246 26.50213332 14.91507428 24.00130847 12.875 21.5 C12.30523437 20.80390625 11.73546875 20.1078125 11.1484375 19.390625 C9.42034475 17.26978389 7.70982774 15.13557972 6 13 C5.41637695 12.29359375 4.83275391 11.5871875 4.23144531 10.859375 C3.68327148 10.17359375 3.13509766 9.4878125 2.5703125 8.78125 C2.07547363 8.17345703 1.58063477 7.56566406 1.07080078 6.93945312 C-0.27419721 4.50336922 -0.1944495 2.74002392 0 0 Z " fill="#2D9DC3" transform="translate(71,58)"/>
<path d="M0 0 C5.1230199 4.9969702 9.5325701 10.42158053 14 16 C14.64324219 16.76441406 15.28648437 17.52882812 15.94921875 18.31640625 C20.02804213 23.32698882 20.02804213 23.32698882 19.875 27 C19.441875 27.99 19.441875 27.99 19 29 C14.84617573 27.44110558 12.53072123 24.40293567 9.8125 21.0625 C9.33707764 20.48927002 8.86165527 19.91604004 8.37182617 19.32543945 C6.90738317 17.55605663 5.45297229 15.77880821 4 14 C3.09405226 12.89818891 2.18781481 11.79661593 1.28125 10.6953125 C-0.81952801 8.13582031 -2.9133234 5.57099167 -5 3 C-4.34 2.67 -3.68 2.34 -3 2 C-2.01 2.33 -1.02 2.66 0 3 C0 2.01 0 1.02 0 0 Z " fill="#259CC2" transform="translate(131,112)"/>
<path d="M0 0 C4.33098616 0.48620743 6.04036383 1.61677267 8.8125 4.9375 C9.49441406 5.74703125 10.17632812 6.5565625 10.87890625 7.390625 C11.57886719 8.25171875 12.27882813 9.1128125 13 10 C13.71027344 10.86109375 14.42054687 11.7221875 15.15234375 12.609375 C18.67348102 16.93702974 22.02029311 21.28213076 25 26 C23.68 26 22.36 26 21 26 C20.67 26.99 20.34 27.98 20 29 C19.61070313 28.48953125 19.22140625 27.9790625 18.8203125 27.453125 C14.42914086 21.74662545 9.8705271 16.20644912 5.234375 10.69921875 C4.49703125 9.80847656 3.7596875 8.91773438 3 8 C2.40703125 7.30519531 1.8140625 6.61039063 1.203125 5.89453125 C0 4 0 4 0 0 Z " fill="#2C9EC3" transform="translate(77,50)"/>
<path d="M0 0 C3.43098275 1.23613876 5.32072899 4.22058047 7.54101562 6.98535156 C8.01410156 7.55898437 8.4871875 8.13261719 8.97460938 8.72363281 C9.90374564 9.85352429 10.82709141 10.98820617 11.74414062 12.12792969 C12.94015664 13.61034111 14.16138041 15.07232021 15.38476562 16.53222656 C17.04101562 18.73535156 17.04101562 18.73535156 17.04101562 20.73535156 C17.70101562 20.73535156 18.36101562 20.73535156 19.04101562 20.73535156 C19.70101562 22.05535156 20.36101562 23.37535156 21.04101562 24.73535156 C20.05101563 24.73535156 19.06101562 24.73535156 18.04101562 24.73535156 C17.71101563 26.05535156 17.38101563 27.37535156 17.04101562 28.73535156 C13.4390746 24.27820108 9.84720386 19.81686831 6.38867188 15.24707031 C5.9463623 14.66401123 5.50405273 14.08095215 5.04833984 13.48022461 C4.18008958 12.33235471 3.31571253 11.18154303 2.45556641 10.02758789 C0.44455421 7.37222768 -1.154622 5.60492648 -3.95898438 3.73535156 C-3.95898438 2.74535156 -3.95898438 1.75535156 -3.95898438 0.73535156 C-1.95898438 -0.26464844 -1.95898438 -0.26464844 0 0 Z " fill="#2A9BBF" transform="translate(59.958984375,75.2646484375)"/>
<path d="M0 0 C2.66380979 0.09202252 4.43609709 0.4623389 6.39550781 2.33056641 C7.86941603 4.11691837 9.25750181 5.94346058 10.625 7.8125 C11.10195312 8.44220703 11.57890625 9.07191406 12.0703125 9.72070312 C12.98807968 10.93546996 13.898531 12.15580882 14.80053711 13.38232422 C15.78820413 14.71435794 16.81663574 16.01606679 17.85546875 17.30859375 C19 19 19 19 18.6875 21.25 C18.460625 21.8275 18.23375 22.405 18 23 C11.53930724 20.9412229 8.20806956 16.06639422 4 11 C3.43023437 10.31550781 2.86046875 9.63101563 2.2734375 8.92578125 C0.875 7.125 0.875 7.125 -1 4 C-0.6171875 1.8046875 -0.6171875 1.8046875 0 0 Z " fill="#316797" transform="translate(85,92)"/>
<path d="M0 0 C3.72414443 3.63627896 7.19160973 7.41034681 10.5625 11.375 C11.26536133 12.18324219 11.26536133 12.18324219 11.98242188 13.0078125 C15.19580262 16.78297309 17.65067327 20.63301619 20 25 C19.34 25 18.68 25 18 25 C18 24.34 18 23.68 18 23 C17.34 23 16.68 23 16 23 C15.67 24.98 15.34 26.96 15 29 C14.34 28.67 13.68 28.34 13 28 C12.85224121 27.2359082 12.70448242 26.47181641 12.55224609 25.68457031 C11.94091402 22.71277215 11.06426478 21.37607928 9.1640625 19.046875 C8.59429687 18.345625 8.02453125 17.644375 7.4375 16.921875 C6.839375 16.20515625 6.24125 15.4884375 5.625 14.75 C5.03460938 14.0178125 4.44421875 13.285625 3.8359375 12.53125 C0.5910132 8.35367266 0.5910132 8.35367266 -4 6 C-4 5.34 -4 4.68 -4 4 C-3.01 3.67 -2.02 3.34 -1 3 C-0.67 2.01 -0.34 1.02 0 0 Z " fill="#C5F4FA" transform="translate(70,112)"/>
<path d="M0 0 C3.33886447 0.56829826 4.78664187 1.46739728 6.9453125 4.0546875 C7.46480469 4.66957031 7.98429687 5.28445312 8.51953125 5.91796875 C9.04933594 6.56378906 9.57914063 7.20960937 10.125 7.875 C10.66253906 8.51308594 11.20007813 9.15117188 11.75390625 9.80859375 C18.29096233 17.6171969 18.29096233 17.6171969 18 23 C15.3251871 22.91246067 13.56056277 22.54094896 11.60449219 20.65332031 C10.13300636 18.84979634 8.74315828 17.00809697 7.375 15.125 C6.42611534 13.85554619 5.47564418 12.58727639 4.5234375 11.3203125 C3.903479 10.47364014 3.903479 10.47364014 3.27099609 9.60986328 C2.01671319 7.93334854 2.01671319 7.93334854 0.32275391 6.46044922 C-0.33200928 5.73752686 -0.33200928 5.73752686 -1 5 C-0.6875 2.3125 -0.6875 2.3125 0 0 Z " fill="#269CC3" transform="translate(44,91)"/>
<path d="M0 0 C3.31342044 0.24111745 4.21591808 1.22211512 6.5859375 3.66015625 C7.52568483 4.78594917 8.45494103 5.92056032 9.375 7.0625 C9.85815674 7.64797607 10.34131348 8.23345215 10.83911133 8.83666992 C14.35860196 13.12802533 17.74065454 17.5073887 21 22 C20.34 22.33 19.68 22.66 19 23 C17.68 21.68 16.36 20.36 15 19 C15.515625 19.78375 16.03125 20.5675 16.5625 21.375 C17.036875 22.24125 17.51125 23.1075 18 24 C17.67 24.66 17.34 25.32 17 26 C12.06369914 20.72527662 7.30848156 15.32885305 2.875 9.625 C2.10929687 8.64789063 1.34359375 7.67078125 0.5546875 6.6640625 C-1 4 -1 4 -0.7421875 1.6484375 C-0.49726562 1.10445313 -0.25234375 0.56046875 0 0 Z " fill="#2CA0C9" transform="translate(51,83)"/>
<path d="M0 0 C4.00792301 0.49992399 5.75969374 1.28432863 8.296875 4.421875 C9.14572266 5.46601562 9.14572266 5.46601562 10.01171875 6.53125 C10.87216797 7.62953125 10.87216797 7.62953125 11.75 8.75 C12.63365234 9.82507813 12.63365234 9.82507813 13.53515625 10.921875 C16.52059017 14.65538317 18.29992664 17.17889779 19 22 C17.68 22.33 16.36 22.66 15 23 C14.41992188 22.28714844 13.83984375 21.57429688 13.2421875 20.83984375 C12.46101563 19.88207031 11.67984375 18.92429688 10.875 17.9375 C10.05902344 16.93332031 9.24304688 15.92914063 8.40234375 14.89453125 C6.47142775 12.56801295 4.48850543 10.34323369 2.4375 8.125 C0 5 0 5 -0.375 2.0625 C-0.25125 1.381875 -0.1275 0.70125 0 0 Z " fill="#2D9EC2" transform="translate(65,118)"/>
<path d="M0 0 C3.57698902 3.48740432 6.86141233 7.09322625 10.0625 10.9375 C10.89910156 11.93652344 11.73570312 12.93554688 12.59765625 13.96484375 C14.92034384 16.89936124 16.97320176 19.85916485 19 23 C15.63408134 21.55746343 13.48952921 19.66735273 11 17 C11 19.31 11 21.62 11 24 C10.34 23.67 9.68 23.34 9 23 C8.88398438 22.2678125 8.76796875 21.535625 8.6484375 20.78125 C7.79997304 17.14205306 6.0631102 15.30895544 3.625 12.5 C0.71809982 9.12913203 -1.81793699 5.88547994 -4 2 C-2.68 2.33 -1.36 2.66 0 3 C0 2.01 0 1.02 0 0 Z " fill="#CDF7FC" transform="translate(128,117)"/>
<path d="M0 0 C3.57698902 3.48740432 6.86141233 7.09322625 10.0625 10.9375 C10.89910156 11.93652344 11.73570313 12.93554688 12.59765625 13.96484375 C14.92034384 16.89936124 16.97320176 19.85916485 19 23 C17 22 15 21 13 20 C12.67 21.65 12.34 23.3 12 25 C11.73960938 24.43023437 11.47921875 23.86046875 11.2109375 23.2734375 C9.89944765 20.81122107 8.37148389 18.79857165 6.625 16.625 C3.89538269 13.17736227 1.37220793 9.70064437 -1 6 C-0.01 6 0.98 6 2 6 C1.34 4.02 0.68 2.04 0 0 Z " fill="#C3F2FA" transform="translate(113,115)"/>
<path d="M0 0 C0.5671875 0.72316406 1.134375 1.44632812 1.71875 2.19140625 C3.8935359 4.8689252 6.16152163 7.40281369 8.5 9.9375 C11.70747614 13.47259314 14.53081405 16.92047539 17 21 C15.68 20.67 14.36 20.34 13 20 C13.33 21.65 13.66 23.3 14 25 C7.41641721 18.82789114 1.81352922 11.62142127 -3 4 C-2.01 4 -1.02 4 0 4 C0 2.68 0 1.36 0 0 Z " fill="#DEF1F8" transform="translate(82,93)"/>
<path d="M0 0 C0.99 0.33 1.98 0.66 3 1 C4 4 4 4 3 6.625 C1 9 1 9 -2.375 9.9375 C-5.97626289 9.99959074 -7.80387191 9.50928271 -11 8 C-11.99 8 -12.98 8 -14 8 C-14.66 8.66 -15.32 9.32 -16 10 C-16.99 10 -17.98 10 -19 10 C-19.33 9.01 -19.66 8.02 -20 7 C-18.5459375 6.62875 -18.5459375 6.62875 -17.0625 6.25 C-15.5465625 5.63125 -15.5465625 5.63125 -14 5 C-13.03122943 2.96756452 -13.03122943 2.96756452 -13 1 C-10.79550567 2.02351522 -8.96156459 3.0309963 -7.0625 4.5625 C-4.70401953 6.20628942 -2.82251571 6.60798393 0 7 C0 4.69 0 2.38 0 0 Z " fill="#EBFCFC" transform="translate(139,134)"/>
<path d="M0 0 C3.56209836 1.18736612 4.32905156 2.36511988 6.5625 5.3125 C7.16191406 6.09238281 7.76132812 6.87226562 8.37890625 7.67578125 C9.81399176 9.73331348 10.95401055 11.72588364 12 14 C11.34 14 10.68 14 10 14 C10 13.34 10 12.68 10 12 C7.55853792 12.94945748 5.19182705 13.8984445 2.875 15.125 C1 16 1 16 -2 16 C-2.33 14.68 -2.66 13.36 -3 12 C-1.02 12.66 0.96 13.32 3 14 C0.64543677 8.43282467 0.64543677 8.43282467 -2 3 C-1.34 3 -0.68 3 0 3 C0 2.01 0 1.02 0 0 Z " fill="#CBF7FC" transform="translate(46,100)"/>
<path d="M0 0 C3.70953944 0.55684036 5.25975843 1.94835464 7.6875 4.75 C8.28949219 5.42546875 8.89148438 6.1009375 9.51171875 6.796875 C11.1553165 9.22991733 11.62128761 11.11168681 12 14 C10.68 14.33 9.36 14.66 8 15 C6.65186813 13.45025019 5.3219657 11.88462935 4 10.3125 C3.2575 9.44238281 2.515 8.57226562 1.75 7.67578125 C-0.15423648 4.76416967 -0.39190361 3.39853912 0 0 Z " fill="#2F6490" transform="translate(78,100)"/>
<path d="M0 0 C3.15512873 0.32752201 4.68861649 0.71347981 7.0546875 2.890625 C7.95574219 4.05851563 7.95574219 4.05851563 8.875 5.25 C9.49117187 6.01828125 10.10734375 6.7865625 10.7421875 7.578125 C12.27957624 10.53831451 11.98473084 11.8798416 11 15 C7.6985495 13.57570166 5.64201806 11.86063129 3.25 9.1875 C2.63640625 8.52105469 2.0228125 7.85460937 1.390625 7.16796875 C-0.27285439 4.57462308 -0.27440795 3.02376458 0 0 Z " fill="#299BC1" transform="translate(58,126)"/>
<path d="M0 0 C3.17508065 0.32354017 4.67651409 0.69153084 7.01953125 2.92578125 C7.61121094 3.71339844 8.20289063 4.50101562 8.8125 5.3125 C9.41707031 6.09238281 10.02164063 6.87226562 10.64453125 7.67578125 C12 10 12 10 12 14 C7.46684519 13.53077871 5.60610574 12.07310522 2.625 8.6875 C1.91601562 7.90761719 1.20703125 7.12773438 0.4765625 6.32421875 C-1 4 -1 4 -0.7265625 1.70703125 C-0.48679688 1.14371094 -0.24703125 0.58039063 0 0 Z " fill="#3E9EBF" transform="translate(37,100)"/>
<path d="M0 0 C0.25523438 0.57234375 0.51046875 1.1446875 0.7734375 1.734375 C2.13087159 4.24173733 3.71974104 6.1330456 5.625 8.25 C6.25664063 8.95640625 6.88828125 9.6628125 7.5390625 10.390625 C8.02117187 10.92171875 8.50328125 11.4528125 9 12 C8.01 12.33 7.02 12.66 6 13 C5.34 12.67 4.68 12.34 4 12 C4 11.34 4 10.68 4 10 C3.34 10 2.68 10 2 10 C1.67 11.32 1.34 12.64 1 14 C-1.375 14.125 -1.375 14.125 -4 14 C-4.66 13.34 -5.32 12.68 -6 12 C-5.625 9.875 -5.625 9.875 -5 8 C-3.02 8 -1.04 8 1 8 C0.67 5.36 0.34 2.72 0 0 Z " fill="#CCF4FA" transform="translate(57,127)"/>
<path d="M0 0 C0.25523438 0.56203125 0.51046875 1.1240625 0.7734375 1.703125 C2.15692781 4.29386482 3.79938583 6.45107845 5.625 8.75 C6.25664063 9.54921875 6.88828125 10.3484375 7.5390625 11.171875 C8.02117187 11.77515625 8.50328125 12.3784375 9 13 C8.360625 13.12375 7.72125 13.2475 7.0625 13.375 C6.381875 13.58125 5.70125 13.7875 5 14 C4.67 14.66 4.34 15.32 4 16 C3.61328125 15.51789063 3.2265625 15.03578125 2.828125 14.5390625 C2.30734375 13.90742187 1.7865625 13.27578125 1.25 12.625 C0.73953125 11.99851562 0.2290625 11.37203125 -0.296875 10.7265625 C-2.08199481 8.91687682 -3.67949644 7.99882545 -6 7 C-4.35 6.67 -2.7 6.34 -1 6 C-0.67 4.02 -0.34 2.04 0 0 Z " fill="#CDF8FC" transform="translate(70,59)"/>
<path d="M0 0 C1.98 0.99 1.98 0.99 4 2 C4 2.66 4 3.32 4 4 C4.598125 4.0825 5.19625 4.165 5.8125 4.25 C8.6788626 5.23275289 9.56592275 6.35827876 11 9 C10.6875 11.25 10.6875 11.25 10 13 C6.07155677 11.7259103 4.05541292 10.62144181 2 7 C1.26739841 4.68652128 0.588562 2.354248 0 0 Z " fill="#2499C4" transform="translate(66,102)"/>
<path d="M0 0 C3.38082062 0.25043116 4.2814127 1.2814127 6.75 3.75 C9.01128327 7.01629806 9.56337087 8.1690781 9 12 C8.34 12 7.68 12 7 12 C7 11.34 7 10.68 7 10 C6.401875 9.95875 5.80375 9.9175 5.1875 9.875 C3 9 3 9 1.25 6.125 C0 3 0 3 0 0 Z " fill="#D9F7FC" transform="translate(80,111)"/>
<path d="M0 0 C2.26171875 -0.28125 2.26171875 -0.28125 5 0 C7.01953125 1.96875 7.01953125 1.96875 8.8125 4.5 C9.41707031 5.3353125 10.02164063 6.170625 10.64453125 7.03125 C11.09183594 7.6809375 11.53914063 8.330625 12 9 C11.01 9.495 11.01 9.495 10 10 C10 9.34 10 8.68 10 8 C9.01 8 8.02 8 7 8 C6.67 8.99 6.34 9.98 6 11 C4.98805294 9.92781799 3.99081943 8.84173622 3 7.75 C2.443125 7.14671875 1.88625 6.5434375 1.3125 5.921875 C0 4 0 4 0 0 Z " fill="#339EC1" transform="translate(104,67)"/>
<path d="M0 0 C6.90939597 6.67114094 6.90939597 6.67114094 7.1875 10.75 C7.125625 11.4925 7.06375 12.235 7 13 C5.68 13 4.36 13 3 13 C-2 7.77272727 -2 7.77272727 -2 5 C-1.34 4.67 -0.68 4.34 0 4 C0 2.68 0 1.36 0 0 Z " fill="#309DC5" transform="translate(163,101)"/>
<path d="M0 0 C2.125 0 2.125 0 5 1 C7.25484692 3.49775783 9.14265083 6.19801963 11 9 C10.01 9.495 10.01 9.495 9 10 C8.67 9.34 8.34 8.68 8 8 C7.01 8 6.02 8 5 8 C4.67 8.99 4.34 9.98 4 11 C3.13050683 9.92892883 2.27985795 8.84254056 1.4375 7.75 C0.96183594 7.14671875 0.48617187 6.5434375 -0.00390625 5.921875 C-1 4 -1 4 -0.65234375 1.765625 C-0.43707031 1.18296875 -0.22179687 0.6003125 0 0 Z " fill="#2E6996" transform="translate(85,92)"/>
<path d="M0 0 C3.54581059 1.8662161 5.6710856 3.1340672 7 7 C7 7.99 7 8.98 7 10 C7.66 10.33 8.32 10.66 9 11 C8.01 11.495 8.01 11.495 7 12 C1.94878784 9.87317383 0.38444935 6.68058576 -2 2 C-1.34 1.34 -0.68 0.68 0 0 Z " fill="#DDF9FC" transform="translate(107,110)"/>
<path d="M0 0 C4.54109672 4.26587874 8.24735246 9.03612328 12 14 C11.01 14.495 11.01 14.495 10 15 C9.01 14.67 8.02 14.34 7 14 C6.67 14.66 6.34 15.32 6 16 C4.68 14.35 3.36 12.7 2 11 C2.99 10.67 3.98 10.34 5 10 C4.6390625 9.44570312 4.278125 8.89140625 3.90625 8.3203125 C3.4421875 7.59585938 2.978125 6.87140625 2.5 6.125 C2.0359375 5.40570313 1.571875 4.68640625 1.09375 3.9453125 C0 2 0 2 0 0 Z " fill="#C0F3FA" transform="translate(65,72)"/>
<path d="M0 0 C3.28788824 3.11016455 5.83735988 6.01618925 8 10 C7.34 10 6.68 10 6 10 C6 9.34 6 8.68 6 8 C5.34 8 4.68 8 4 8 C4.309375 8.515625 4.61875 9.03125 4.9375 9.5625 C6.29059287 12.66665423 6.61359424 15.65115007 7 19 C6.34 18.67 5.68 18.34 5 18 C4.85691406 17.40703125 4.71382812 16.8140625 4.56640625 16.203125 C3.87243216 13.50380509 2.64967482 11.93575509 0.9375 9.75 C0.38964844 9.04359375 -0.15820312 8.3371875 -0.72265625 7.609375 C-1.14417969 7.07828125 -1.56570312 6.5471875 -2 6 C-1.34 5.67 -0.68 5.34 0 5 C0.66 5.33 1.32 5.66 2 6 C1.34 4.02 0.68 2.04 0 0 Z " fill="#BFF2F9" transform="translate(151,95)"/>
<path d="M0 0 C2.86054142 2.69708191 5.47543296 5.44373499 7.875 8.5625 C8.30554688 9.12066406 8.73609375 9.67882812 9.1796875 10.25390625 C10.24857916 12.52911849 9.82144584 13.68271143 9 16 C7.68 15.67 6.36 15.34 5 15 C4.42547805 12.78398675 3.94933314 10.64533195 3.625 8.375 C3.18763511 5.6459049 3.18763511 5.6459049 0 4 C0 2.68 0 1.36 0 0 Z " fill="#3AA2C0" transform="translate(74,125)"/>
<path d="M0 0 C0.99 0 1.98 0 3 0 C3 0.66 3 1.32 3 2 C3.639375 2.103125 4.27875 2.20625 4.9375 2.3125 C5.618125 2.539375 6.29875 2.76625 7 3 C7.33 3.99 7.66 4.98 8 6 C5.83125748 5.49396008 4.00032373 5.00016187 2 4 C1.5978125 5.2065625 1.5978125 5.2065625 1.1875 6.4375 C0.795625 7.283125 0.40375 8.12875 0 9 C-3 10 -3 10 -6 9 C-6 8.01 -6 7.02 -6 6 C-4.02 6 -2.04 6 0 6 C0 4.02 0 2.04 0 0 Z " fill="#DDF9FB" transform="translate(71,134)"/>
<path d="M0 0 C5.75 1.625 5.75 1.625 8 5 C8.125 7.6875 8.125 7.6875 8 10 C4.9054129 9.6684371 3.97195314 8.97117406 1.75 6.6875 C0 4 0 4 0 0 Z " fill="#E2F6FC" transform="translate(86,86)"/>
<path d="M0 0 C2.25 0 2.25 0 5 1 C7.05695657 3.99014453 9 7.313902 9 11 C6.6875 10.875 6.6875 10.875 4 10 C2.00939343 6.80081088 0.7114794 3.6996929 0 0 Z " fill="#DDFBFD" transform="translate(144,90)"/>
<path d="M0 0 C1.9375 0.3125 1.9375 0.3125 4 1 C4.33 1.99 4.66 2.98 5 4 C6.485 4.928125 6.485 4.928125 8 5.875 C11 8 11 8 11.875 10.75 C11.936875 11.86375 11.936875 11.86375 12 13 C12.66 13 13.32 13 14 13 C13.67 13.99 13.34 14.98 13 16 C8.14396737 11.44746941 3.97880604 6.33140264 0 1 C0 0.67 0 0.34 0 0 Z " fill="#DAF9FB" transform="translate(124,52)"/>
<path d="M0 0 C0.99 0.33 1.98 0.66 3 1 C3 1.66 3 2.32 3 3 C3.598125 3.0825 4.19625 3.165 4.8125 3.25 C7.65025411 4.22294427 8.49676067 5.44449313 10 8 C10 8.99 10 9.98 10 11 C9.01 10.67 8.02 10.34 7 10 C7 9.34 7 8.68 7 8 C6.34 8 5.68 8 5 8 C4.67 9.32 4.34 10.64 4 12 C3.71125 10.88625 3.4225 9.7725 3.125 8.625 C2.30758671 4.99708908 2.30758671 4.99708908 0 3 C0 2.01 0 1.02 0 0 Z " fill="#DBFBFD" transform="translate(154,102)"/>
<path d="M0 0 C3.28788824 3.11016455 5.83735988 6.01618925 8 10 C6 10 6 10 3.875 8 C3.25625 7.34 2.6375 6.68 2 6 C2.515625 6.78375 3.03125 7.5675 3.5625 8.375 C4.036875 9.24125 4.51125 10.1075 5 11 C4.67 11.66 4.34 12.32 4 13 C1.36 10.03 -1.28 7.06 -4 4 C-3.34 3.67 -2.68 3.34 -2 3 C-1.34 3.33 -0.68 3.66 0 4 C0 2.68 0 1.36 0 0 Z " fill="#36A2C2" transform="translate(64,96)"/>
<path d="M0 0 C5.33980583 -0.48543689 5.33980583 -0.48543689 8.125 1.5625 C10.4819428 4.62652564 12.29146647 7.51965392 14 11 C13.67 11.99 13.34 12.98 13 14 C12.39671875 13.24074219 11.7934375 12.48148438 11.171875 11.69921875 C10.37265625 10.70535156 9.5734375 9.71148437 8.75 8.6875 C7.96109375 7.70136719 7.1721875 6.71523438 6.359375 5.69921875 C4.34801702 3.3981453 2.5206842 1.69394604 0 0 Z " fill="#CAF3FA" transform="translate(78,49)"/>
<path d="M0 0 C3.67230705 3.07999946 4.56802365 5.2482602 5 10 C1.51669784 9.35494404 -1.09432866 8.01782732 -4 6 C-4 5.34 -4 4.68 -4 4 C-3.01 3.67 -2.02 3.34 -1 3 C-0.67 2.01 -0.34 1.02 0 0 Z " fill="#DAF8FC" transform="translate(70,112)"/>
<path d="M0 0 C3.65316671 1.24976756 4.78065836 1.67098753 7 5 C6.625 7.6875 6.625 7.6875 6 10 C3.54896452 9.01958581 2.23241214 8.3486182 0.75 6.125 C0 4 0 4 0 0 Z " fill="#259BBC" transform="translate(144,131)"/>
<path d="M0 0 C1.32 0.33 2.64 0.66 4 1 C4 1.66 4 2.32 4 3 C4.66 3 5.32 3 6 3 C6 3.99 6 4.98 6 6 C6.639375 6.20625 7.27875 6.4125 7.9375 6.625 C10 8 10 8 10.75 11.125 C10.87375 12.548125 10.87375 12.548125 11 14 C6.80312307 10.04999819 3.24385836 5.77103566 0 1 C0 0.67 0 0.34 0 0 Z " fill="#CFF7FB" transform="translate(137,68)"/>
<path d="M0 0 C2.64752004 2.57784846 4.94432065 4.91648098 7 8 C5.68 8 4.36 8 3 8 C3.99 9.32 4.98 10.64 6 12 C5.67 12.66 5.34 13.32 5 14 C3.96386967 12.76265016 2.94652198 11.50955363 1.9375 10.25 C1.36902344 9.55390625 0.80054687 8.8578125 0.21484375 8.140625 C-1 6 -1 6 -0.68359375 3.859375 C-0.45800781 3.24578125 -0.23242188 2.6321875 0 2 C0 1.34 0 0.68 0 0 Z " fill="#33A0C2" transform="translate(73,74)"/>
<path d="M0 0 C1.98 0.66 3.96 1.32 6 2 C6.33 3.65 6.66 5.3 7 7 C5.68 7.33 4.36 7.66 3 8 C0 3.375 0 3.375 0 0 Z " fill="#339CBD" transform="translate(131,133)"/>
<path d="M0 0 C3.63559661 3.43361902 6.36113346 6.7973607 9 11 C7 10 5 9 3 8 C2.67 9.65 2.34 11.3 2 13 C0.5393715 10.35261084 0 9.10551666 0 6 C0.66 6 1.32 6 2 6 C1.34 4.02 0.68 2.04 0 0 Z " fill="#BCEEF6" transform="translate(123,127)"/>
<path d="M0 0 C3.26008643 3.16952847 6.22237877 6.39937989 9 10 C8.01 10.495 8.01 10.495 7 11 C5.68 9.35 4.36 7.7 3 6 C2.01 7.485 2.01 7.485 1 9 C-0.32 7.35 -1.64 5.7 -3 4 C-2.01 3.34 -1.02 2.68 0 2 C0 1.34 0 0.68 0 0 Z " fill="#339EC0" transform="translate(130,78)"/>
<path d="M0 0 C1.8125 0.0625 1.8125 0.0625 4 1 C5.75 4.5625 5.75 4.5625 7 8 C6.01 8.66 5.02 9.32 4 10 C0 3.375 0 3.375 0 0 Z " fill="#DFFCFE" transform="translate(130,106)"/>
<path d="M0 0 C2.475 0.495 2.475 0.495 5 1 C5 1.66 5 2.32 5 3 C5.66 3 6.32 3 7 3 C7.33 3.99 7.66 4.98 8 6 C7.67 6.66 7.34 7.32 7 8 C4.13275314 7.42655063 3.1385485 7.1385485 1 5 C0.375 2.375 0.375 2.375 0 0 Z " fill="#2D5C91" transform="translate(89,99)"/>
<path d="M0 0 C3.28788824 3.11016455 5.83735988 6.01618925 8 10 C6.68 9.67 5.36 9.34 4 9 C4 8.34 4 7.68 4 7 C3.34 7 2.68 7 2 7 C2 7.66 2 8.32 2 9 C1.34 9 0.68 9 0 9 C-1.625 6.5 -1.625 6.5 -3 4 C-1.68 4.33 -0.36 4.66 1 5 C0.67 3.35 0.34 1.7 0 0 Z " fill="#C1F1FA" transform="translate(50,87)"/>
<path d="M0 0 C2.98214104 0.33061431 3.9139866 0.90420065 5.95703125 3.1796875 C6.87548828 4.51386719 6.87548828 4.51386719 7.8125 5.875 C8.43769531 6.75929688 9.06289062 7.64359375 9.70703125 8.5546875 C10.13371094 9.36164063 10.56039062 10.16859375 11 11 C10.67 11.99 10.34 12.98 10 14 C8.33041937 11.85637773 6.66423643 9.71026458 5 7.5625 C4.52304688 6.95083984 4.04609375 6.33917969 3.5546875 5.70898438 C0 1.11328125 0 1.11328125 0 0 Z " fill="#D3FAFC" transform="translate(150,84)"/>
<path d="M0 0 C0.99 0 1.98 0 3 0 C3.12375 0.804375 3.2475 1.60875 3.375 2.4375 C3.58125 3.283125 3.7875 4.12875 4 5 C4.66 5.33 5.32 5.66 6 6 C-0.625 10 -0.625 10 -4 10 C-4.33 8.68 -4.66 7.36 -5 6 C-3.02 6.66 -1.04 7.32 1 8 C0.67 5.36 0.34 2.72 0 0 Z " fill="#DCF7FB" transform="translate(48,106)"/>
<path d="M0 0 C1.875 0.25 1.875 0.25 4 1 C5.25 3.0625 5.25 3.0625 6 5 C5.01 5 4.02 5 3 5 C3.33 6.32 3.66 7.64 4 9 C2.35 7.68 0.7 6.36 -1 5 C-0.67 3.35 -0.34 1.7 0 0 Z " fill="#3FA1BE" transform="translate(44,91)"/>
<path d="M0 0 C3.53647504 1.67517239 4.7911563 2.49280817 6.3125 6.1875 C6.539375 7.115625 6.76625 8.04375 7 9 C6.01 9.33 5.02 9.66 4 10 C0.06153846 5.69230769 0.06153846 5.69230769 -0.25 2.1875 C-0.1675 1.465625 -0.085 0.74375 0 0 Z " fill="#DEFCFE" transform="translate(118,124)"/>
<path d="M0 0 C2.0625 1.75 2.0625 1.75 4 4 C3.75 6.25 3.75 6.25 3 8 C-0.25543229 7.65120368 -1.01873107 6.97866739 -3.25 4.4375 C-4.11625 3.2309375 -4.11625 3.2309375 -5 2 C-4.01 2 -3.02 2 -2 2 C-2 2.66 -2 3.32 -2 4 C-1.34 4 -0.68 4 0 4 C0 2.68 0 1.36 0 0 Z " fill="#319CBC" transform="translate(153,106)"/>
<path d="M0 0 C2.64752004 2.57784846 4.94432065 4.91648098 7 8 C5.02 8.33 3.04 8.66 1 9 C-0.32 7.02 -1.64 5.04 -3 3 C-2.01 2.67 -1.02 2.34 0 2 C0 1.34 0 0.68 0 0 Z " fill="#D1E9F4" transform="translate(103,103)"/>
<path d="M0 0 C1.32 1.32 2.64 2.64 4 4 C3.67 4.99 3.34 5.98 3 7 C2.01 7.33 1.02 7.66 0 8 C-0.66 7.01 -1.32 6.02 -2 5 C-4.05003955 3.80767387 -4.05003955 3.80767387 -6 3 C-5 2 -5 2 -2.4375 1.9375 C-1.2309375 1.9684375 -1.2309375 1.9684375 0 2 C0 1.34 0 0.68 0 0 Z " fill="#D5F9FC" transform="translate(43,96)"/>
<path d="M0 0 C2.1875 0 2.1875 0 5 1 C6.96188534 3.50803179 8.49921743 6.19641043 10 9 C9.01 9.495 9.01 9.495 8 10 C7.54625 9.175 7.0925 8.35 6.625 7.5 C5.820625 6.2625 5.820625 6.2625 5 5 C4.34 5 3.68 5 3 5 C2.67 5.99 2.34 6.98 2 8 C-0.1519437 4.77208445 -0.20086443 3.71599191 0 0 Z " fill="#3DA1C1" transform="translate(71,58)"/>
<path d="M0 0 C2.96404505 2.80804268 5.44499019 5.18315774 7 9 C6.01 9 5.02 9 4 9 C4 8.34 4 7.68 4 7 C2.68 6.67 1.36 6.34 0 6 C-0.38218767 4.34385343 -0.71395102 2.67542976 -1 1 C-0.67 0.67 -0.34 0.34 0 0 Z " fill="#1B9BC7" transform="translate(104,115)"/>
<path d="M0 0 C5.78461538 4.43076923 5.78461538 4.43076923 6.875 7.3125 C6.936875 8.1478125 6.936875 8.1478125 7 9 C6.01 9.33 5.02 9.66 4 10 C0.06153846 5.69230769 0.06153846 5.69230769 -0.25 2.1875 C-0.1675 1.465625 -0.085 0.74375 0 0 Z " fill="#1F9AC0" transform="translate(40,103)"/>
<path d="M0 0 C3.34998521 1.11666174 3.79340222 1.74694925 5.6875 4.5625 C6.12449219 5.20316406 6.56148438 5.84382813 7.01171875 6.50390625 C7.33785156 6.99761719 7.66398437 7.49132812 8 8 C7.34 8.66 6.68 9.32 6 10 C5.67 9.01 5.34 8.02 5 7 C4.360625 6.87625 3.72125 6.7525 3.0625 6.625 C2.381875 6.41875 1.70125 6.2125 1 6 C-0.25 3.4375 -0.25 3.4375 -1 1 C-0.67 0.67 -0.34 0.34 0 0 Z " fill="#1A99C3" transform="translate(59,77)"/>
<path d="M0 0 C2.62187494 1.04874998 3.79371361 1.64931313 5.25 4.125 C5.4975 4.74375 5.745 5.3625 6 6 C5.34 6 4.68 6 4 6 C4 5.34 4 4.68 4 4 C3.01 4 2.02 4 1 4 C1 5.98 1 7.96 1 10 C0.731875 9.443125 0.46375 8.88625 0.1875 8.3125 C-1.10122647 5.80287477 -2.52926478 3.40665764 -4 1 C-2.68 1.33 -1.36 1.66 0 2 C0 1.34 0 0.68 0 0 Z " fill="#BAEFF8" transform="translate(70,130)"/>
<path d="M0 0 C1.65 1.65 3.3 3.3 5 5 C4.34 6.65 3.68 8.3 3 10 C1.35 8.35 -0.3 6.7 -2 5 C-1.34 4.67 -0.68 4.34 0 4 C0 2.68 0 1.36 0 0 Z " fill="#D8EDF6" transform="translate(94,92)"/>
<path d="M0 0 C2.8992226 0.46761655 3.86675182 0.86675182 6 3 C5.625 5.125 5.625 5.125 5 7 C2.5625 6.25 2.5625 6.25 0 5 C-0.875 2.9375 -0.875 2.9375 -1 1 C-0.67 0.67 -0.34 0.34 0 0 Z " fill="#339CC0" transform="translate(51,83)"/>
<path d="M0 0 C4.875 4.625 4.875 4.625 6 8 C5.34 8 4.68 8 4 8 C4 7.34 4 6.68 4 6 C3.34 6 2.68 6 2 6 C1.67 7.32 1.34 8.64 1 10 C-0.65 7.69 -2.3 5.38 -4 3 C-2.68 3.33 -1.36 3.66 0 4 C0 2.68 0 1.36 0 0 Z " fill="#BFF1FA" transform="translate(58,80)"/>
<path d="M0 0 C2.375 0.6875 2.375 0.6875 5 2 C6.3125 4.625 6.3125 4.625 7 7 C5.68 7.33 4.36 7.66 3 8 C0 3.375 0 3.375 0 0 Z " fill="#DFFBFE" transform="translate(95,113)"/>
<path d="M0 0 C2.45234885 0.98093954 3.7809268 1.68703828 5.3125 3.875 C6.1132654 6.35009306 5.86325845 7.58287634 5 10 C5 9.34 5 8.68 5 8 C3.68 7.67 2.36 7.34 1 7 C0.67 4.69 0.34 2.38 0 0 Z " fill="#1999C0" transform="translate(59,92)"/>
<path d="M0 0 C2.25 -0.3125 2.25 -0.3125 5 0 C7.3125 2.5 7.3125 2.5 9 5 C8.01 5.495 8.01 5.495 7 6 C7 5.34 7 4.68 7 4 C5.68 3.67 4.36 3.34 3 3 C3.33 4.32 3.66 5.64 4 7 C2 5.1875 2 5.1875 0 3 C0 2.01 0 1.02 0 0 Z " fill="#31A1C5" transform="translate(143,82)"/>
<path d="M0 0 C1.32 0.33 2.64 0.66 4 1 C4 1.66 4 2.32 4 3 C4.66 3 5.32 3 6 3 C6.33 4.65 6.66 6.3 7 8 C5.68 8 4.36 8 3 8 C2.01 5.36 1.02 2.72 0 0 Z " fill="#189BC3" transform="translate(67,71)"/>
<path d="M0 0 C1.98 0.495 1.98 0.495 4 1 C4.5625 2.9375 4.5625 2.9375 5 5 C4 6 3 7 2 8 C0.4375 6.8125 0.4375 6.8125 -1 5 C-0.6875 2.3125 -0.6875 2.3125 0 0 Z " fill="#339BBA" transform="translate(112,58)"/>
<path d="M0 0 C1.67542976 0.28604898 3.34385343 0.61781233 5 1 C4.67 2.65 4.34 4.3 4 6 C2.68 5.67 1.36 5.34 0 5 C-0.5625 3.0625 -0.5625 3.0625 -1 1 C-0.67 0.67 -0.34 0.34 0 0 Z " fill="#49A1B9" transform="translate(52,135)"/>
<path d="M0 0 C3.28788824 3.11016455 5.83735988 6.01618925 8 10 C7.34 10 6.68 10 6 10 C6 9.34 6 8.68 6 8 C4.02 8.33 2.04 8.66 0 9 C0.185625 8.2575 0.37125 7.515 0.5625 6.75 C0.99203108 4.05009037 0.85122974 2.55368923 0 0 Z " fill="#3AA6C6" transform="translate(136,68)"/>
<path d="M0 0 C1.32 0.33 2.64 0.66 4 1 C4 1.66 4 2.32 4 3 C4.99 3 5.98 3 7 3 C7 4.65 7 6.3 7 8 C5.68 8 4.36 8 3 8 C2.01 5.36 1.02 2.72 0 0 Z " fill="#2499BD" transform="translate(55,106)"/>
<path d="M0 0 C1.9375 0.75 1.9375 0.75 4 2 C4.75 4.125 4.75 4.125 5 6 C4.01 6.33 3.02 6.66 2 7 C1.01 6.34 0.02 5.68 -1 5 C-0.67 3.35 -0.34 1.7 0 0 Z " fill="#246698" transform="translate(72,108)"/>
<path d="M0 0 C1.65 1.65 3.3 3.3 5 5 C4.01 5.495 4.01 5.495 3 6 C3 5.34 3 4.68 3 4 C2.01 4 1.02 4 0 4 C0.99 5.485 0.99 5.485 2 7 C1.67 7.99 1.34 8.98 1 10 C-0.65 7.69 -2.3 5.38 -4 3 C-3.34 3 -2.68 3 -2 3 C-1.67 2.34 -1.34 1.68 -1 1 C-0.67 0.67 -0.34 0.34 0 0 Z " fill="#3DA8C7" transform="translate(56,103)"/>
<path d="M0 0 C2.475 0.99 2.475 0.99 5 2 C5 1.34 5 0.68 5 0 C5.99 0.33 6.98 0.66 8 1 C8 2.32 8 3.64 8 5 C6.68 5.33 5.36 5.66 4 6 C2.68 4.02 1.36 2.04 0 0 Z " fill="#369DB9" transform="translate(103,135)"/>
<path d="M0 0 C0.66 0 1.32 0 2 0 C6 5.41176471 6 5.41176471 6 8 C4.35 7.67 2.7 7.34 1 7 C0.34 5.02 -0.32 3.04 -1 1 C-0.67 0.67 -0.34 0.34 0 0 Z " fill="#189AC0" transform="translate(117,131)"/>
<path d="M0 0 C1.70884005 1.62339805 3.37446717 3.29319053 5 5 C5 5.66 5 6.32 5 7 C4.34 7 3.68 7 3 7 C2.34 6.34 1.68 5.68 1 5 C1 5.66 1 6.32 1 7 C-2.16115776 5.63016497 -2.9927092 5.0109362 -5 2 C-2.525 2.495 -2.525 2.495 0 3 C0 2.01 0 1.02 0 0 Z " fill="#3498BA" transform="translate(131,112)"/>
<path d="M0 0 C1.875 0.1875 1.875 0.1875 4 1 C5.25 3.5625 5.25 3.5625 6 6 C4.68 6.33 3.36 6.66 2 7 C0.5393715 4.35261084 0 3.10551666 0 0 Z " fill="#205F92" transform="translate(111,108)"/>
<path d="M0 0 C1.65 1.65 3.3 3.3 5 5 C4.01 6.485 4.01 6.485 3 8 C2.67 8.99 2.34 9.98 2 11 C0.68 9.35 -0.64 7.7 -2 6 C-1.01 5.34 -0.02 4.68 1 4 C0.67 2.68 0.34 1.36 0 0 Z " fill="#35A1C2" transform="translate(129,93)"/>
<path d="M0 0 C0.66 0 1.32 0 2 0 C2.33 0.66 2.66 1.32 3 2 C5.02463255 2.65213292 5.02463255 2.65213292 7 3 C7 3.66 7 4.32 7 5 C6.34 5 5.68 5 5 5 C5.33 6.65 5.66 8.3 6 10 C3.35247996 7.42215154 1.05567935 5.08351902 -1 2 C-0.67 1.34 -0.34 0.68 0 0 Z " fill="#D1F8FD" transform="translate(52,94)"/>
<path d="M0 0 C2.875 0.625 2.875 0.625 6 2 C7.375 5.125 7.375 5.125 8 8 C6.25 7.9375 6.25 7.9375 4 7 C2.40498463 4.75835678 1.25456982 2.46433357 0 0 Z " fill="#1A97C6" transform="translate(75,81)"/>
<path d="M0 0 C2.375 0.6875 2.375 0.6875 5 2 C6.3125 4.625 6.3125 4.625 7 7 C5 8 5 8 2.9375 7.4375 C1 6 1 6 0.25 2.875 C0.1675 1.92625 0.085 0.9775 0 0 Z " fill="#DBFBFD" transform="translate(137,82)"/>
<path d="M0 0 C1.65 1.65 3.3 3.3 5 5 C4.67 5.66 4.34 6.32 4 7 C3.01 6.67 2.02 6.34 1 6 C1.66 7.65 2.32 9.3 3 11 C1.35 9.35 -0.3 7.7 -2 6 C-1.67 5.38125 -1.34 4.7625 -1 4.125 C0.14193235 2.08981656 0.14193235 2.08981656 0 0 Z " fill="#3A95B8" transform="translate(89,110)"/>
<path d="M0 0 C2.475 0.495 2.475 0.495 5 1 C5 2.65 5 4.3 5 6 C3.35 5.67 1.7 5.34 0 5 C0 3.35 0 1.7 0 0 Z " fill="#459EB9" transform="translate(30,108)"/>
<path d="M0 0 C0.99 0 1.98 0 3 0 C3.185625 0.9590625 3.185625 0.9590625 3.375 1.9375 C3.684375 2.9584375 3.684375 2.9584375 4 4 C4.66 4.33 5.32 4.66 6 5 C6 5.99 6 6.98 6 8 C4.125 7.6875 4.125 7.6875 2 7 C0 4 0 4 0 0 Z " fill="#E4F5FB" transform="translate(95,80)"/>
<path d="M0 0 C4.875 3.625 4.875 3.625 6 7 C5.01 7 4.02 7 3 7 C2.67 8.32 2.34 9.64 2 11 C1.01 9.35 0.02 7.7 -1 6 C-0.01 6 0.98 6 2 6 C1.34 4.02 0.68 2.04 0 0 Z " fill="#BDF3FA" transform="translate(116,69)"/>
<path d="M0 0 C3.76922693 1.25640898 5.425698 3.00824362 8 6 C8 7.32 8 8.64 8 10 C7.34 10 6.68 10 6 10 C4.4921875 8.3203125 4.4921875 8.3203125 2.875 6.125 C2.33617187 5.40570313 1.79734375 4.68640625 1.2421875 3.9453125 C0 2 0 2 0 0 Z " fill="#0F97C4" transform="translate(145,100)"/>
<path d="M0 0 C2.475 0.495 2.475 0.495 5 1 C5.66 2.98 6.32 4.96 7 7 C4.625 6.3125 4.625 6.3125 2 5 C0.6875 2.375 0.6875 2.375 0 0 Z " fill="#E1FEFE" transform="translate(74,72)"/>
<path d="M0 0 C0.268125 0.556875 0.53625 1.11375 0.8125 1.6875 C2.10122647 4.19712523 3.52926478 6.59334236 5 9 C-2.42857143 9.28571429 -2.42857143 9.28571429 -6 7 C-4.35 6.67 -2.7 6.34 -1 6 C-0.67 4.02 -0.34 2.04 0 0 Z " fill="#B4E7F0" transform="translate(70,59)"/>
<path d="M0 0 C0.99 0 1.98 0 3 0 C2.67 1.98 2.34 3.96 2 6 C-1.75 7.125 -1.75 7.125 -4 6 C-3.67 5.34 -3.34 4.68 -3 4 C-2.34 4 -1.68 4 -1 4 C-0.67 2.68 -0.34 1.36 0 0 Z " fill="#D5F4F7" transform="translate(151,136)"/>
<path d="M0 0 C1.32 1.32 2.64 2.64 4 4 C3.67 4.99 3.34 5.98 3 7 C-0.26954202 6.43628586 -1.82575883 5.50037734 -4 3 C-3.34 2.67 -2.68 2.34 -2 2 C-2 2.66 -2 3.32 -2 4 C-1.01 4 -0.02 4 1 4 C0.67 2.68 0.34 1.36 0 0 Z " fill="#3DA0C1" transform="translate(140,107)"/>
<path d="M0 0 C2.375 0.25 2.375 0.25 5 1 C6.3125 3.0625 6.3125 3.0625 7 5 C5.824375 4.9690625 5.824375 4.9690625 4.625 4.9375 C2.01885039 4.81315937 2.01885039 4.81315937 0 6 C0 4.02 0 2.04 0 0 Z " fill="#D9F8FD" transform="translate(63,107)"/>
<path d="M0 0 C0.99 0.66 1.98 1.32 3 2 C2.6875 3.9375 2.6875 3.9375 2 6 C1.01 6.33 0.02 6.66 -1 7 C-1.99 5.35 -2.98 3.7 -4 2 C-3.01 2 -2.02 2 -1 2 C-0.67 1.34 -0.34 0.68 0 0 Z " fill="#CAF3F9" transform="translate(74,100)"/>
<path d="M0 0 C0.99 0 1.98 0 3 0 C4.06775224 1.96466413 5.06553465 3.96855359 6 6 C5.67 6.66 5.34 7.32 5 8 C4.34 7.67 3.68 7.34 3 7 C3 6.34 3 5.68 3 5 C2.34 5 1.68 5 1 5 C1 4.34 1 3.68 1 3 C0.34 3 -0.32 3 -1 3 C-0.67 2.01 -0.34 1.02 0 0 Z " fill="#1F5C90" transform="translate(92,84)"/>
<path d="M0 0 C2.64 0.33 5.28 0.66 8 1 C7.67 2.65 7.34 4.3 7 6 C3.63279613 4.60667426 2.0140476 3.0210714 0 0 Z " fill="#3698BE" transform="translate(89,135)"/>
<path d="M0 0 C4.875 4.75 4.875 4.75 6 7 C-1.50769231 6.50769231 -1.50769231 6.50769231 -4 3.9375 C-4.33 3.298125 -4.66 2.65875 -5 2 C-3.02 2.66 -1.04 3.32 1 4 C0.67 2.68 0.34 1.36 0 0 Z " fill="#40A8C9" transform="translate(140,123)"/>
<path d="M0 0 C1.32 0 2.64 0 4 0 C5.4606285 2.64738916 6 3.89448334 6 7 C4.125 6.875 4.125 6.875 2 6 C0.75 2.9375 0.75 2.9375 0 0 Z " fill="#189AC4" transform="translate(96,124)"/>
<path d="M0 0 C0.33 1.32 0.66 2.64 1 4 C2.65 4.33 4.3 4.66 6 5 C6.33 3.68 6.66 2.36 7 1 C7 2.98 7 4.96 7 7 C5.00045254 7.04254356 2.99958364 7.04080783 1 7 C0 6 0 6 -0.0625 2.9375 C-0.041875 1.968125 -0.02125 0.99875 0 0 Z " fill="#BFEBF3" transform="translate(29,109)"/>
<path d="M0 0 C1.65 1.65 3.3 3.3 5 5 C3.68 4.67 2.36 4.34 1 4 C1.33 5.65 1.66 7.3 2 9 C0.35 7.35 -1.3 5.7 -3 4 C-2.01 3.67 -1.02 3.34 0 3 C0 2.01 0 1.02 0 0 Z " fill="#C6E9F5" transform="translate(94,109)"/>
<path d="M0 0 C4.875 3.625 4.875 3.625 6 7 C5.401875 6.835 4.80375 6.67 4.1875 6.5 C1.88655664 5.8885876 1.88655664 5.8885876 -1 6 C-1.042721 4.33388095 -1.04063832 2.66617115 -1 1 C-0.67 0.67 -0.34 0.34 0 0 Z " fill="#D6E9F3" transform="translate(117,104)"/>
<path d="M0 0 C2.475 0.99 2.475 0.99 5 2 C4.67 3.65 4.34 5.3 4 7 C3.01 6.67 2.02 6.34 1 6 C0.67 4.02 0.34 2.04 0 0 Z " fill="#E1FDFE" transform="translate(137,98)"/>
<path d="M0 0 C2.79872437 2.52788007 4.45773019 4.20411134 5 8 C3.35 7.67 1.7 7.34 0 7 C0 4.69 0 2.38 0 0 Z " fill="#DFFCFD" transform="translate(65,74)"/>
<path d="M0 0 C0.99 0 1.98 0 3 0 C3 0.66 3 1.32 3 2 C3.66 2 4.32 2 5 2 C5.33 3.32 5.66 4.64 6 6 C5.01 6.495 5.01 6.495 4 7 C4 6.34 4 5.68 4 5 C2.68 4.67 1.36 4.34 0 4 C0 2.68 0 1.36 0 0 Z " fill="#E6FAFD" transform="translate(118,109)"/>
<path d="M0 0 C1.65 1.65 3.3 3.3 5 5 C4.01 5.495 4.01 5.495 3 6 C2.67 5.34 2.34 4.68 2 4 C1.01 4 0.02 4 -1 4 C-1.33 4.99 -1.66 5.98 -2 7 C-2.99 5.35 -3.98 3.7 -5 2 C-3.35 1.34 -1.7 0.68 0 0 Z " fill="#486D93" transform="translate(91,96)"/>
<path d="M0 0 C2.10633718 1.70828921 2.93801608 2.52148416 3.29296875 5.26171875 C3.25816406 6.06222656 3.22335938 6.86273438 3.1875 7.6875 C3.16042969 8.49574219 3.13335937 9.30398437 3.10546875 10.13671875 C3.07066406 10.75160156 3.03585938 11.36648437 3 12 C-0.875 7.25 -0.875 7.25 -2 5 C-1.34 5 -0.68 5 0 5 C0 3.35 0 1.7 0 0 Z " fill="#33A3C5" transform="translate(127,57)"/>
<path d="M0 0 C2.2477975 2.05233685 3.0022242 3.00667261 4 6 C3.01 6.495 3.01 6.495 2 7 C2.33 8.32 2.66 9.64 3 11 C0 9 0 9 -0.6875 6.375 C-0.790625 5.59125 -0.89375 4.8075 -1 4 C-0.34 4 0.32 4 1 4 C0.67 2.68 0.34 1.36 0 0 Z " fill="#31A3C7" transform="translate(125,121)"/>
<path d="M0 0 C0 1.98 0 3.96 0 6 C-0.99 6 -1.98 6 -3 6 C-3.66 4.35 -4.32 2.7 -5 1 C-3 0 -3 0 0 0 Z " fill="#2A5B89" transform="translate(116,93)"/>
<path d="M0 0 C0.99 0 1.98 0 3 0 C7 5.25714286 7 5.25714286 7 8 C5.68 7.67 4.36 7.34 3 7 C3 6.01 3 5.02 3 4 C2.34 4 1.68 4 1 4 C0.67 2.68 0.34 1.36 0 0 Z " fill="#1296C5" transform="translate(78,67)"/>
<path d="M0 0 C2.475 0.495 2.475 0.495 5 1 C5 1.99 5 2.98 5 4 C3.35 4.33 1.7 4.66 0 5 C0 3.35 0 1.7 0 0 Z " fill="#4AA5C2" transform="translate(58,126)"/>
<path d="M0 0 C0.99 0.33 1.98 0.66 3 1 C3 1.66 3 2.32 3 3 C3.66 3 4.32 3 5 3 C5 4.32 5 5.64 5 7 C3.68 6.67 2.36 6.34 1 6 C0.67 4.02 0.34 2.04 0 0 Z " fill="#E0FDFE" transform="translate(77,124)"/>
<path d="M0 0 C1.32 0.33 2.64 0.66 4 1 C4 1.99 4 2.98 4 4 C4.99 4.33 5.98 4.66 7 5 C6.67 5.99 6.34 6.98 6 8 C4.5 6.625 4.5 6.625 3 5 C3 4.34 3 3.68 3 3 C2.01 3 1.02 3 0 3 C0 2.01 0 1.02 0 0 Z " fill="#1795C5" transform="translate(66,120)"/>
<path d="M0 0 C3.28788824 3.11016455 5.83735988 6.01618925 8 10 C7.34 10 6.68 10 6 10 C6 9.34 6 8.68 6 8 C4.68 7.67 3.36 7.34 2 7 C1.34 4.69 0.68 2.38 0 0 Z " fill="#BCF1F8" transform="translate(50,104)"/>
<path d="M0 0 C1.32 0 2.64 0 4 0 C4.33 1.65 4.66 3.3 5 5 C4.01 5.33 3.02 5.66 2 6 C1.34 5.34 0.68 4.68 0 4 C0 2.68 0 1.36 0 0 Z " fill="#295F93" transform="translate(98,76)"/>
<path d="M0 0 C1.32 1.32 2.64 2.64 4 4 C2.35 5.32 0.7 6.64 -1 8 C-1.99 6.35 -2.98 4.7 -4 3 C-2.68 3.33 -1.36 3.66 0 4 C0 2.68 0 1.36 0 0 Z " fill="#B8F3FA" transform="translate(130,69)"/>
<path d="M0 0 C1.65 1.65 3.3 3.3 5 5 C4.01 5.495 4.01 5.495 3 6 C3 5.34 3 4.68 3 4 C2.01 4 1.02 4 0 4 C0 2.68 0 1.36 0 0 Z M-3 4 C-2.01 4 -1.02 4 0 4 C0.33 5.32 0.66 6.64 1 8 C-0.32 6.68 -1.64 5.36 -3 4 Z " fill="#B9F0F9" transform="translate(90,70)"/>
<path d="M0 0 C1.32 0.33 2.64 0.66 4 1 C4.33 2.65 4.66 4.3 5 6 C2.525 5.01 2.525 5.01 0 4 C0 2.68 0 1.36 0 0 Z " fill="#1698C5" transform="translate(69,90)"/>
<path d="M0 0 C0.99 0.33 1.98 0.66 3 1 C3.33 2.65 3.66 4.3 4 6 C2.125 5.75 2.125 5.75 0 5 C-1.25 2.9375 -1.25 2.9375 -2 1 C-1.34 0.67 -0.68 0.34 0 0 Z " fill="#1C98BF" transform="translate(122,86)"/>
<path d="M0 0 C2.93200474 2.85276137 5.64315404 5.65079784 8 9 C5 9 5 9 2.875 7.3125 C0.83027036 4.79066678 0.35401103 3.18609925 0 0 Z " fill="#3B6791" transform="translate(108,84)"/>
<path d="M0 0 C2.31 0.33 4.62 0.66 7 1 C7 1.66 7 2.32 7 3 C4.69 3.33 2.38 3.66 0 4 C0 2.66666667 0 1.33333333 0 0 Z " fill="#EAFCFC" transform="translate(77,140)"/>
<path d="M0 0 C0.7425 0.763125 1.485 1.52625 2.25 2.3125 C4.4263323 4.4393702 6.52167796 6.2559956 9 8 C6.69 7.67 4.38 7.34 2 7 C1.34 4.69 0.68 2.38 0 0 Z " fill="#BDF0F8" transform="translate(147,107)"/>
<path d="M0 0 C4.875 4.75 4.875 4.75 6 7 C5.01 7.33 4.02 7.66 3 8 C3 7.01 3 6.02 3 5 C2.01 4.67 1.02 4.34 0 4 C0 2.68 0 1.36 0 0 Z M1 8 C1.66 8 2.32 8 3 8 C2.67 8.66 2.34 9.32 2 10 C1.67 9.34 1.34 8.68 1 8 Z " fill="#CDE5F3" transform="translate(98,80)"/>
<path d="M0 0 C1.65 0 3.3 0 5 0 C5 0.66 5 1.32 5 2 C4.01 2.33 3.02 2.66 2 3 C1.67 4.65 1.34 6.3 1 8 C-0.42944945 5.64561267 -1.08661261 4.51967567 -0.625 1.75 C-0.41875 1.1725 -0.2125 0.595 0 0 Z " fill="#D8F8FC" transform="translate(49,81)"/>
<path d="M0 0 C0.66 0 1.32 0 2 0 C4.125 4.625 4.125 4.625 3 8 C1.5 6.8125 1.5 6.8125 0 5 C-0.1875 2.3125 -0.1875 2.3125 0 0 Z " fill="#189ABE" transform="translate(129,61)"/>
<path d="M0 0 C0.33 1.65 0.66 3.3 1 5 C-0.65 4.67 -2.3 4.34 -4 4 C-4 3.01 -4 2.02 -4 1 C-2 0 -2 0 0 0 Z " fill="#199ABF" transform="translate(163,101)"/>
<path d="M0 0 C0.99 0.33 1.98 0.66 3 1 C3.33 2.65 3.66 4.3 4 6 C1.525 5.01 1.525 5.01 -1 4 C-0.67 2.68 -0.34 1.36 0 0 Z " fill="#E7FEFE" transform="translate(79,92)"/>
<path d="M0 0 C1.65 1.65 3.3 3.3 5 5 C4.01 5.495 4.01 5.495 3 6 C3 5.34 3 4.68 3 4 C1.68 3.67 0.36 3.34 -1 3 C-1.33 3.99 -1.66 4.98 -2 6 C-2.33 5.34 -2.66 4.68 -3 4 C-2.67 3.34 -2.34 2.68 -2 2 C-1.34 2 -0.68 2 0 2 C0 1.34 0 0.68 0 0 Z " fill="#40A5CB" transform="translate(70,87)"/>
<path d="M0 0 C1.32 0.33 2.64 0.66 4 1 C4.33 2.32 4.66 3.64 5 5 C3.35 5 1.7 5 0 5 C0 3.35 0 1.7 0 0 Z " fill="#265992" transform="translate(104,82)"/>
<path d="M0 0 C4 1 4 1 5.8125 3.9375 C6.204375 4.948125 6.59625 5.95875 7 7 C6.67 7.66 6.34 8.32 6 9 C4.02 6.03 2.04 3.06 0 0 Z " fill="#CAF9FC" transform="translate(124,52)"/>
<path d="M0 0 C1.32 0 2.64 0 4 0 C4 1.32 4 2.64 4 4 C2.35 3.67 0.7 3.34 -1 3 C-0.67 2.01 -0.34 1.02 0 0 Z " fill="#1A6A96" transform="translate(127,111)"/>
<path d="M0 0 C0.99 0.99 1.98 1.98 3 3 C1.35 4.32 -0.3 5.64 -2 7 C-2.66 5.68 -3.32 4.36 -4 3 C-2.68 3 -1.36 3 0 3 C0 2.01 0 1.02 0 0 Z " fill="#3F6E98" transform="translate(127,107)"/>
<path d="M0 0 C1.5 1.375 1.5 1.375 3 3 C3 3.66 3 4.32 3 5 C2.01 4.67 1.02 4.34 0 4 C0 2.68 0 1.36 0 0 Z M-3 4 C-1.68 4.33 -0.36 4.66 1 5 C0.67 5.99 0.34 6.98 0 8 C-0.99 6.68 -1.98 5.36 -3 4 Z " fill="#C9EEF6" transform="translate(82,93)"/>
<path d="M0 0 C1.875 0.1875 1.875 0.1875 4 1 C5.25 3.5625 5.25 3.5625 6 6 C3.5625 5.25 3.5625 5.25 1 4 C0.1875 1.875 0.1875 1.875 0 0 Z " fill="#1196C5" transform="translate(146,85)"/>
<path d="M0 0 C0.99 0 1.98 0 3 0 C3.33 1.65 3.66 3.3 4 5 C2.68 4.67 1.36 4.34 0 4 C0 2.68 0 1.36 0 0 Z " fill="#E2FDFE" transform="translate(132,76)"/>
<path d="M0 0 C1.9375 0.6875 1.9375 0.6875 2.9375 2.6875 C1.6175 2.6875 0.2975 2.6875 -1.0625 2.6875 C-1.7225 3.3475 -2.3825 4.0075 -3.0625 4.6875 C-3.3925 3.3675 -3.7225 2.0475 -4.0625 0.6875 C-2.0625 -0.3125 -2.0625 -0.3125 0 0 Z " fill="#4FA8C2" transform="translate(60.0625,75.3125)"/>
<path d="M0 0 C1.65 1.32 3.3 2.64 5 4 C3.68 4 2.36 4 1 4 C0.67 4.99 0.34 5.98 0 7 C-0.66 5.35 -1.32 3.7 -2 2 C-1.34 2 -0.68 2 0 2 C0 1.34 0 0.68 0 0 Z " fill="#2B8FB6" transform="translate(97,72)"/>
<path d="M0 0 C1.32 0.33 2.64 0.66 4 1 C4 2.32 4 3.64 4 5 C2.68 4.67 1.36 4.34 0 4 C0 2.68 0 1.36 0 0 Z " fill="#E4FEFE" transform="translate(126,68)"/>
</svg>