<svg xmlns="http://www.w3.org/2000/svg" width="144" height="108" viewBox="0 0 144 108">
<g>
<path d="M 98.75 64.92 C98.18,68.14 96.02,66.57 88.95,57.80 C74.03,39.31 69.97,33.63 70.97,32.63 C72.24,31.36 74.72,33.59 81.88,42.43 C84.97,46.23 90.09,52.53 93.25,56.43 C96.41,60.32 98.88,64.14 98.75,64.92 ZM 87.00 64.38 C87.00,67.26 84.18,66.10 80.61,61.75 C64.44,42.02 63.66,40.79 67.08,40.29 C67.86,40.18 71.43,43.71 75.00,48.15 C78.57,52.58 82.74,57.68 84.25,59.48 C85.76,61.29 87.00,63.49 87.00,64.38 ZM 75.53 64.95 C75.17,65.53 74.35,66.00 73.69,66.00 C71.79,65.99 59.74,50.13 60.37,48.47 C61.33,45.97 62.79,46.80 66.95,52.25 C69.16,55.14 72.14,58.94 73.57,60.70 C75.01,62.46 75.89,64.37 75.53,64.95 ZM 64.34 64.18 C65.58,68.95 60.59,66.17 56.04,59.55 C53.36,55.66 53.22,55.13 54.77,54.52 C56.02,54.04 57.52,55.02 60.18,58.10 C62.20,60.44 64.07,63.17 64.34,64.18 ZM 52.56 64.90 C51.58,66.50 50.55,66.26 48.48,63.98 C47.06,62.41 46.92,61.68 47.83,60.77 C48.75,59.85 49.50,60.06 51.13,61.69 C52.29,62.85 52.94,64.29 52.56,64.90 Z" fill="rgb(13,74,155)" data-index="0" style="opacity: 1; visibility: visible;"></path>
<path d="M 57.00 26.32 C57.00,26.56 56.13,27.00 55.06,27.27 C53.65,27.64 52.42,26.78 50.56,24.09 C47.50,19.67 47.41,19.00 49.88,19.00 C51.43,19.00 57.00,24.73 57.00,26.32 ZM 60.06 57.97 C57.47,54.99 56.00,54.04 54.77,54.52 C53.22,55.13 53.36,55.66 56.04,59.55 C56.12,59.68 56.21,59.80 56.29,59.92 C52.80,55.85 50.00,51.98 50.00,51.07 C50.00,49.37 53.41,49.83 55.03,51.75 C56.91,53.98 58.63,56.11 60.06,57.97 ZM 92.63 14.17 C94.60,16.14 95.00,17.18 94.28,18.47 C93.43,19.97 93.01,19.80 90.61,16.94 C88.67,14.65 88.20,13.40 88.96,12.64 C89.72,11.88 90.78,12.33 92.63,14.17 ZM 104.00 85.93 C104.00,87.65 101.46,87.16 99.57,85.08 C97.92,83.25 97.93,83.11 99.88,82.07 C101.55,81.17 102.10,81.33 102.96,82.92 C103.53,83.99 104.00,85.35 104.00,85.93 ZM 34.60 40.47 C36.29,41.72 36.33,42.04 35.00,43.32 C33.12,45.13 31.00,44.42 31.00,41.98 C31.00,39.39 32.37,38.81 34.60,40.47 ZM 46.43 29.32 C45.56,31.59 44.30,31.43 42.94,28.89 C42.12,27.36 42.11,26.49 42.91,25.69 C44.45,24.15 47.29,27.09 46.43,29.32 ZM 108.44 64.09 C107.63,65.40 106.42,65.21 105.04,63.54 C103.68,61.90 104.44,60.00 106.45,60.00 C107.97,60.00 109.29,62.72 108.44,64.09 ZM 40.53 63.96 C39.83,65.08 37.69,65.35 36.78,64.44 C36.02,63.69 37.04,60.00 37.99,60.00 C39.35,60.00 41.19,62.88 40.53,63.96 ZM 115.30 86.37 C114.27,87.40 112.32,87.09 111.17,85.71 C110.38,84.75 110.60,84.11 112.02,83.22 C113.62,82.22 114.11,82.33 114.94,83.88 C115.48,84.90 115.65,86.02 115.30,86.37 ZM 80.39 26.88 C81.77,28.40 81.82,28.90 80.70,29.83 C79.20,31.08 77.00,29.61 77.00,27.36 C77.00,25.21 78.67,24.98 80.39,26.88 ZM 63.73 48.41 C61.91,46.61 61.03,46.76 60.37,48.47 C60.08,49.24 62.52,53.08 65.41,56.97 C58.16,47.86 57.30,46.32 58.66,45.30 C59.00,45.04 59.27,44.83 59.57,44.76 C60.29,44.62 61.18,45.35 63.73,48.41 ZM 99.56 36.10 C100.35,37.38 97.71,40.38 96.69,39.36 C96.31,38.98 96.00,37.84 96.00,36.83 C96.00,34.84 98.47,34.33 99.56,36.10 ZM 87.00 64.38 C87.00,63.65 86.15,62.01 85.00,60.44 C87.00,63.00 88.49,65.05 89.02,66.04 C89.73,67.37 89.51,67.89 88.07,68.27 C87.11,68.52 85.52,67.32 82.09,63.41 C84.93,66.35 87.00,66.85 87.00,64.38 ZM 75.53 64.95 C75.86,64.42 75.14,62.76 73.91,61.12 C75.20,62.72 76.23,63.97 76.58,64.35 C77.18,65.00 77.67,66.23 77.67,67.10 C77.67,69.70 75.93,69.07 71.99,64.81 C72.77,65.55 73.37,66.00 73.69,66.00 C74.35,66.00 75.17,65.53 75.53,64.95 ZM 40.39 35.42 C39.75,37.10 38.76,37.43 37.67,36.33 C36.29,34.96 37.07,33.00 39.00,33.00 C41.20,33.00 41.27,33.12 40.39,35.42 ZM 122.00 50.20 C122.00,50.64 121.10,51.00 120.00,51.00 C118.67,51.00 118.00,50.33 118.00,49.00 C118.00,47.90 118.36,47.00 118.80,47.00 C119.83,47.00 122.00,49.17 122.00,50.20 ZM 52.56 64.90 C52.85,64.43 52.53,63.47 51.84,62.52 C51.95,62.63 52.05,62.74 52.16,62.85 C54.81,65.69 55.06,66.37 53.86,67.56 C52.67,68.76 52.06,68.45 49.62,65.39 C49.32,65.01 49.05,64.66 48.81,64.34 C50.66,66.28 51.63,66.41 52.56,64.90 ZM 86.50 20.93 C86.50,22.51 84.74,23.40 83.69,22.35 C82.31,20.98 83.03,18.86 84.75,19.19 C85.71,19.38 86.50,20.16 86.50,20.93 ZM 28.43 61.89 C29.11,62.99 26.56,65.23 25.66,64.32 C25.30,63.96 25.00,63.07 25.00,62.33 C25.00,60.84 27.58,60.51 28.43,61.89 ZM 120.50 62.99 C120.50,63.80 119.67,64.63 118.66,64.83 C117.32,65.08 116.92,64.68 117.17,63.34 C117.59,61.15 120.50,60.84 120.50,62.99 ZM 69.69 42.22 C68.40,40.97 67.44,40.24 67.08,40.29 C65.29,40.55 64.65,41.01 66.76,44.22 C63.46,39.51 63.31,38.00 65.36,38.00 C65.71,38.00 67.38,39.67 69.69,42.22 ZM 58.00 85.50 C58.00,86.32 57.33,87.00 56.50,87.00 C55.67,87.00 55.00,86.32 55.00,85.50 C55.00,84.68 55.67,84.00 56.50,84.00 C57.33,84.00 58.00,84.68 58.00,85.50 ZM 93.61 44.80 C95.02,45.59 94.96,45.78 93.12,46.26 C91.95,46.56 90.77,46.44 90.48,45.98 C89.65,44.63 91.84,43.81 93.61,44.80 ZM 112.50 53.00 C112.16,53.55 111.46,54.00 110.94,54.00 C110.42,54.00 110.00,53.55 110.00,53.00 C110.00,52.45 110.70,52.00 111.56,52.00 C112.42,52.00 112.84,52.45 112.50,53.00 ZM 84.24 59.47 C83.02,58.02 80.09,54.44 77.14,50.79 C79.64,53.77 82.16,56.84 84.24,59.47 ZM 73.97 53.61 C75.50,55.50 77.27,57.67 79.31,60.15 C78.00,58.58 76.49,56.74 74.77,54.60 C74.50,54.26 74.23,53.93 73.97,53.61 ZM 64.45 64.70 C64.69,65.57 64.59,66.12 64.26,66.35 C64.52,66.07 64.61,65.53 64.45,64.70 ZM 48.20 60.46 C48.09,60.53 47.99,60.61 47.88,60.72 C47.90,60.71 47.91,60.69 47.92,60.68 C48.01,60.59 48.10,60.52 48.20,60.46 Z" fill="rgb(26,141,205)" data-index="1" style="opacity: 1; visibility: visible;"></path>
<path d="M 92.63 14.17 C92.16,13.70 91.74,13.32 91.36,13.03 C91.74,13.30 92.15,13.64 92.61,14.06 C95.38,16.63 109.55,34.17 119.86,47.44 C119.47,47.17 119.09,47.00 118.80,47.00 C118.36,47.00 118.00,47.90 118.00,49.00 C118.00,50.33 118.67,51.00 120.00,51.00 C121.10,51.00 122.00,50.64 122.00,50.20 L 122.00 50.19 C127.21,56.95 131.00,62.07 131.00,62.58 C131.00,63.36 130.89,63.97 130.75,63.93 C127.82,63.11 123.65,58.75 114.81,47.29 C112.78,44.65 107.29,37.78 102.62,32.00 C96.01,23.85 92.36,19.34 90.44,16.75 C90.50,16.81 90.55,16.88 90.61,16.94 C93.01,19.80 93.43,19.97 94.28,18.47 C95.00,17.18 94.60,16.14 92.63,14.17 ZM 93.61 44.80 C92.01,43.91 90.08,44.49 90.32,45.59 C89.28,44.27 88.33,43.03 87.50,41.92 C86.40,40.45 83.54,36.72 81.14,33.64 C80.10,32.30 79.27,31.12 78.65,30.11 C79.32,30.40 80.07,30.36 80.70,29.83 C81.79,28.93 81.77,28.43 80.51,27.01 C80.70,27.19 80.91,27.38 81.13,27.59 C82.82,29.19 85.59,32.53 87.30,35.00 C89.00,37.47 93.87,43.63 98.13,48.68 C103.07,54.54 105.94,58.10 107.41,60.36 C107.12,60.13 106.79,60.00 106.45,60.00 C104.85,60.00 104.04,61.20 104.46,62.51 C101.17,58.89 95.35,51.95 90.84,46.25 C91.35,46.47 92.24,46.49 93.12,46.26 C94.96,45.78 95.02,45.59 93.61,44.80 ZM 119.47 61.56 C118.59,61.38 117.43,62.02 117.17,63.34 C117.10,63.74 117.08,64.06 117.13,64.30 C116.90,64.11 116.69,63.88 116.49,63.61 C114.38,60.67 103.12,46.66 97.19,39.56 C98.28,39.58 99.95,37.56 99.67,36.38 C100.13,36.93 100.57,37.48 101.00,38.00 C111.51,50.75 117.26,58.07 119.47,61.56 ZM 77.43 43.28 C72.59,37.21 67.92,31.37 64.75,27.44 C58.84,20.11 54.00,13.87 54.00,13.56 C54.00,13.25 54.87,13.00 55.92,13.00 C57.83,13.00 62.56,18.07 70.86,29.00 C72.20,30.76 74.11,33.18 75.99,35.50 C73.15,32.47 71.80,31.80 70.97,32.63 C70.30,33.30 71.88,36.04 77.43,43.28 ZM 64.45 64.70 C64.44,64.64 64.43,64.58 64.42,64.51 C64.78,65.35 65.37,66.00 65.80,66.00 C66.86,66.00 81.00,84.57 81.00,85.98 C81.00,87.89 78.38,87.01 75.83,84.25 C74.43,82.74 70.94,78.35 68.07,74.50 C65.60,71.18 62.35,67.05 60.28,64.56 C62.14,66.26 63.66,66.97 64.26,66.35 C64.59,66.12 64.69,65.57 64.45,64.70 ZM 98.75 64.92 C98.84,64.37 97.65,62.32 95.83,59.79 C97.02,61.36 97.84,62.51 98.19,63.12 C98.91,64.38 100.25,66.10 101.16,66.95 C103.84,69.46 110.27,77.75 113.51,82.57 C113.13,82.59 112.67,82.82 112.02,83.22 C111.21,83.72 110.79,84.15 110.73,84.60 C107.45,81.13 101.49,73.64 89.86,58.93 C96.21,66.70 98.21,67.99 98.75,64.92 ZM 91.00 84.34 C91.00,85.25 90.42,86.00 89.72,86.00 C88.66,86.00 84.98,81.72 69.44,62.04 C70.39,63.15 71.27,64.11 71.99,64.81 C75.93,69.07 77.67,69.70 77.67,67.10 C77.67,66.23 77.18,65.00 76.58,64.35 C76.27,64.01 75.42,62.99 74.33,61.65 C75.55,63.13 76.59,64.34 77.07,64.85 C81.29,69.29 91.00,82.87 91.00,84.34 ZM 48.20 60.46 C48.10,60.52 48.01,60.59 47.92,60.68 C47.91,60.69 47.90,60.71 47.88,60.72 C47.87,60.73 47.85,60.75 47.83,60.77 C47.17,61.43 47.06,62.01 47.61,62.87 C43.29,57.61 37.80,51.01 32.91,45.24 C32.61,44.88 32.34,44.52 32.12,44.17 C32.90,44.54 33.98,44.30 35.00,43.32 C35.57,42.77 35.89,42.39 35.93,42.05 C37.69,44.08 40.78,47.99 43.77,52.00 C46.83,56.09 50.36,60.61 52.63,63.36 C52.48,63.20 52.32,63.03 52.16,62.85 C52.05,62.74 51.95,62.63 51.84,62.52 C51.64,62.24 51.40,61.95 51.13,61.69 C49.72,60.28 48.97,59.93 48.20,60.46 ZM 46.43 29.32 C46.64,28.77 46.63,28.17 46.46,27.61 C49.29,30.47 54.35,36.61 63.88,48.57 C63.83,48.51 63.78,48.46 63.73,48.41 C61.18,45.35 60.29,44.62 59.57,44.76 C59.27,44.83 59.00,45.04 58.66,45.30 C57.57,46.12 57.91,47.26 61.80,52.36 C57.66,47.15 52.75,41.09 50.20,38.06 C47.33,34.66 45.39,32.28 44.15,30.55 C45.03,31.30 45.83,30.90 46.43,29.32 ZM 68.00 83.59 C68.00,87.45 62.83,82.88 54.88,71.97 C54.24,71.10 52.84,69.32 50.94,66.97 C52.34,68.51 52.92,68.51 53.86,67.56 C54.71,66.72 54.83,66.14 53.90,64.87 C54.00,64.98 54.10,65.09 54.18,65.19 C56.01,67.21 58.27,69.91 59.22,71.19 C60.16,72.46 62.52,75.46 64.47,77.84 C66.41,80.23 68.00,82.82 68.00,83.59 ZM 40.39 35.42 C40.69,34.64 40.88,34.11 40.91,33.75 C41.33,34.05 41.69,34.42 41.94,34.89 C42.49,35.92 45.46,39.86 48.52,43.64 C52.05,47.98 54.77,51.35 56.88,53.98 C56.29,53.25 55.67,52.51 55.03,51.75 C53.41,49.83 50.00,49.37 50.00,51.07 C50.00,51.67 51.24,53.59 53.11,56.01 C47.30,48.88 41.15,40.87 38.43,36.88 C39.22,37.19 39.90,36.69 40.39,35.42 ZM 101.48 81.52 C101.07,81.50 100.57,81.70 99.88,82.07 C98.69,82.70 98.22,83.00 98.41,83.55 C98.18,83.30 97.95,83.03 97.71,82.75 C93.39,77.59 85.66,68.11 78.11,58.71 C78.52,59.21 78.92,59.70 79.31,60.15 L 79.31 60.15 C79.73,60.67 80.17,61.20 80.61,61.75 C81.12,62.37 81.61,62.92 82.09,63.41 C85.52,67.32 87.11,68.52 88.07,68.27 C89.51,67.89 89.73,67.37 89.02,66.04 C88.86,65.73 88.60,65.32 88.26,64.83 C90.69,67.89 93.66,71.59 96.25,74.76 C98.26,77.22 100.10,79.61 101.48,81.52 ZM 86.50 20.93 C86.50,20.70 86.43,20.46 86.30,20.24 C87.36,21.14 88.62,22.49 89.97,24.25 C91.79,26.61 95.44,31.19 98.82,35.33 C97.63,34.57 96.00,35.21 96.00,36.83 C96.00,37.37 96.09,37.95 96.23,38.42 C89.91,30.91 85.74,25.52 83.97,22.58 C85.02,23.25 86.50,22.38 86.50,20.93 ZM 38.88 60.33 C38.58,60.13 38.28,60.00 37.99,60.00 C37.28,60.00 36.54,62.05 36.51,63.40 C35.21,62.25 33.53,60.43 31.65,58.10 C25.98,51.08 24.71,48.00 27.50,48.00 C28.75,48.00 35.68,55.80 38.88,60.33 ZM 57.00 26.32 C57.00,26.18 56.96,26.00 56.88,25.81 C57.11,26.11 57.36,26.43 57.60,26.75 C60.83,31.00 67.27,39.01 71.95,44.57 C71.13,43.67 70.36,42.87 69.69,42.22 C67.38,39.67 65.71,38.00 65.36,38.00 C63.31,38.00 63.46,39.51 66.76,44.22 C67.22,44.91 67.81,45.74 68.55,46.73 C63.97,40.96 58.31,33.84 55.01,29.70 C54.08,28.53 53.20,27.39 52.38,26.33 C53.34,27.24 54.16,27.51 55.06,27.27 C56.13,27.00 57.00,26.56 57.00,26.32 ZM 54.01 79.51 C55.59,81.34 56.97,83.27 57.61,84.50 C57.34,84.19 56.94,84.00 56.50,84.00 C55.67,84.00 55.00,84.68 55.00,85.50 C55.00,85.67 55.03,85.84 55.08,85.99 C53.68,84.88 51.80,82.88 49.54,80.05 C46.49,76.23 44.00,72.63 44.00,72.05 C44.00,70.22 47.89,70.92 48.97,72.95 C49.54,74.02 51.81,76.97 54.01,79.51 ZM 28.08 61.14 C28.19,61.35 28.27,61.54 28.32,61.74 C27.38,60.54 25.00,60.90 25.00,62.33 C25.00,62.73 25.09,63.18 25.22,63.56 C24.55,62.98 23.72,62.05 22.60,60.69 C18.71,55.94 18.11,54.00 20.55,54.00 C22.11,54.00 26.46,58.12 28.08,61.14 ZM 45.42 85.12 C44.53,86.56 43.52,86.15 40.69,83.20 C37.94,80.33 37.24,77.59 38.97,76.52 C40.13,75.80 46.19,83.88 45.42,85.12 ZM 112.50 53.00 C112.84,52.45 112.42,52.00 111.56,52.00 C110.70,52.00 110.00,52.45 110.00,53.00 C110.00,53.55 110.42,54.00 110.94,54.00 C111.46,54.00 112.16,53.55 112.50,53.00 ZM 120.50 64.00 C119.99,64.83 119.12,65.11 118.25,64.89 C118.38,64.88 118.51,64.86 118.66,64.83 C119.51,64.66 120.24,64.05 120.44,63.37 C120.55,63.68 120.57,63.89 120.50,64.00 ZM 83.00 20.35 C83.00,19.03 83.66,18.69 84.74,19.19 C83.79,19.01 83.15,19.58 83.00,20.35 ZM 115.21 86.45 C114.76,87.10 114.32,87.43 113.43,86.96 C114.10,87.03 114.74,86.87 115.21,86.45 ZM 58.00 85.56 C58.00,86.71 57.58,87.17 56.79,86.97 C57.47,86.84 57.98,86.25 58.00,85.54 C58.00,85.55 58.00,85.55 58.00,85.56 ZM 32.71 39.55 C31.79,39.43 31.20,40.00 31.04,41.23 C31.00,40.04 31.62,39.32 32.71,39.55 ZM 37.00 34.45 C37.00,34.44 37.00,34.42 37.00,34.41 C37.00,33.52 37.69,33.08 38.56,33.04 C37.70,33.18 37.14,33.76 37.00,34.45 ZM 48.74 21.29 C48.27,20.57 48.00,20.10 48.00,19.95 C48.00,19.81 48.06,19.68 48.16,19.56 C48.07,19.91 48.26,20.45 48.74,21.29 ZM 77.77 25.68 C78.06,25.33 78.44,25.36 79.13,25.85 C78.61,25.57 78.14,25.52 77.77,25.68 ZM 88.79 14.25 C88.49,13.65 88.47,13.33 88.60,13.08 C88.67,12.93 88.80,12.80 88.95,12.65 C88.57,13.04 88.51,13.55 88.79,14.25 ZM 87.72 49.62 C89.07,51.26 90.33,52.81 91.47,54.24 C90.31,52.81 89.02,51.22 87.72,49.62 ZM 28.11 63.35 C27.98,63.56 27.80,63.75 27.58,63.93 C27.46,64.03 27.34,64.11 27.22,64.17 C27.55,63.96 27.87,63.67 28.11,63.35 ZM 107.31 64.94 C107.20,64.98 107.09,65.00 106.99,65.00 C106.95,65.00 106.89,64.97 106.81,64.90 C106.98,64.95 107.15,64.96 107.31,64.94 ZM 108.53 63.96 C108.51,63.98 108.50,64.00 108.48,64.03 C108.62,63.79 108.69,63.51 108.70,63.21 C108.72,63.51 108.66,63.75 108.53,63.96 ZM 103.68 86.74 C103.50,86.93 103.24,87.01 102.92,86.98 C103.23,86.98 103.49,86.90 103.68,86.74 ZM 104.00 85.62 C104.00,85.69 104.00,85.75 103.99,85.82 C103.98,85.66 103.95,85.47 103.89,85.26 C103.96,85.42 104.00,85.54 104.00,85.62 ZM 42.43 26.40 C42.52,26.15 42.67,25.93 42.88,25.72 C42.89,25.71 42.89,25.71 42.90,25.70 C42.68,25.93 42.52,26.15 42.43,26.40 ZM 48.89 64.44 C48.84,64.38 48.79,64.33 48.75,64.27 C48.77,64.29 48.79,64.31 48.81,64.34 C48.84,64.37 48.86,64.40 48.89,64.44 ZM 115.46 86.02 C115.46,86.05 115.45,86.08 115.44,86.10 C115.45,86.07 115.45,86.04 115.46,86.02 Z" fill="rgb(23,147,219)" data-index="2" style="opacity: 1; visibility: visible;"></path>

<path d="M 34.60 40.47 C34.23,40.20 33.88,39.98 33.56,39.83 C35.03,39.90 35.43,38.46 35.05,34.75 C34.95,33.79 35.47,33.00 36.19,32.99 C36.91,32.98 38.40,31.84 39.50,30.44 C40.15,29.63 41.21,28.38 42.33,27.13 C42.36,27.61 42.56,28.18 42.94,28.89 C43.36,29.67 43.76,30.22 44.15,30.55 C45.39,32.28 47.33,34.66 50.20,38.06 C52.75,41.09 57.66,47.15 61.80,52.36 C62.77,53.63 63.96,55.15 65.41,56.97 C66.73,58.75 68.15,60.53 69.44,62.04 C84.98,81.72 88.66,86.00 89.72,86.00 C90.42,86.00 91.00,85.25 91.00,84.34 C91.00,82.87 81.29,69.29 77.07,64.85 C76.59,64.34 75.55,63.13 74.33,61.65 C74.19,61.48 74.05,61.30 73.91,61.12 C73.80,60.98 73.69,60.84 73.57,60.70 C72.14,58.94 69.16,55.14 66.95,52.25 C65.71,50.62 64.70,49.41 63.88,48.57 C54.35,36.61 49.29,30.47 46.46,27.61 C46.10,26.39 45.02,25.33 44.02,25.26 C44.23,25.03 44.44,24.81 44.64,24.60 C45.99,23.18 47.33,21.36 48.03,20.08 C48.12,20.30 48.36,20.72 48.74,21.29 C49.14,22.00 49.74,22.91 50.56,24.09 C51.24,25.07 51.83,25.81 52.38,26.33 C53.20,27.39 54.08,28.53 55.01,29.70 C58.31,33.84 63.97,40.96 68.55,46.73 C69.86,48.48 71.63,50.72 73.97,53.61 L 73.97 53.61 C74.23,53.93 74.50,54.26 74.77,54.60 C75.99,56.12 77.10,57.48 78.11,58.71 C85.66,68.11 93.39,77.59 97.71,82.75 C97.95,83.03 98.18,83.30 98.41,83.55 C98.53,83.91 98.93,84.36 99.57,85.08 C100.58,86.19 101.77,86.85 102.66,86.96 C102.25,87.19 102.00,87.50 102.00,87.88 C102.00,89.10 97.25,88.01 95.99,86.49 C94.83,85.09 90.93,85.66 89.79,87.40 C89.31,88.14 88.12,87.91 86.08,86.71 C83.16,84.98 83.01,84.99 81.04,86.96 C78.61,89.39 77.98,89.45 75.44,87.53 C73.23,85.86 68.00,85.49 68.00,87.00 C68.00,88.56 63.39,88.17 62.00,86.50 C61.32,85.68 60.33,85.00 59.81,85.00 C59.41,85.00 58.68,85.39 58.00,85.93 C58.00,85.90 57.99,85.87 57.99,85.84 C58.00,85.75 58.00,85.66 58.00,85.56 C58.00,85.55 58.00,85.55 58.00,85.54 C58.00,85.53 58.00,85.51 58.00,85.50 C58.00,85.17 57.89,84.87 57.72,84.63 C57.02,82.42 55.13,78.94 53.29,76.67 C50.53,73.26 50.40,72.00 52.81,72.00 C53.67,72.00 56.10,74.08 58.65,76.93 C61.31,80.27 63.50,82.62 65.09,83.88 C67.00,85.43 68.00,85.36 68.00,83.59 C68.00,82.82 66.41,80.23 64.47,77.84 C62.52,75.46 60.16,72.46 59.22,71.19 C58.27,69.91 56.01,67.21 54.18,65.19 C54.10,65.09 54.00,64.98 53.90,64.87 C53.60,64.45 53.17,63.96 52.63,63.36 C50.36,60.61 46.83,56.09 43.77,52.00 C40.78,47.99 37.69,44.08 35.93,42.05 C35.99,41.59 35.56,41.18 34.60,40.47 ZM 40.53 63.96 C41.05,63.11 40.01,61.12 38.88,60.33 C35.68,55.80 28.75,48.00 27.50,48.00 C24.71,48.00 25.98,51.08 31.65,58.10 C33.53,60.43 35.21,62.25 36.51,63.40 C36.51,63.87 36.58,64.25 36.78,64.44 C37.52,65.19 39.09,65.14 40.02,64.49 C37.70,66.57 34.77,66.38 32.75,64.02 C30.94,61.90 28.00,62.27 28.00,64.61 C28.00,66.65 24.20,66.30 21.25,63.98 C19.74,62.80 17.92,62.21 16.84,62.55 C14.47,63.30 14.51,62.43 17.00,59.27 C18.10,57.87 19.00,56.12 19.00,55.37 C19.00,55.18 19.04,55.01 19.10,54.85 C19.02,55.84 20.16,57.71 22.60,60.69 C23.72,62.05 24.55,62.98 25.22,63.56 C25.34,63.88 25.49,64.16 25.66,64.32 C26.02,64.69 26.64,64.54 27.22,64.17 C27.34,64.11 27.46,64.03 27.58,63.93 C27.80,63.75 27.98,63.56 28.11,63.35 C28.49,62.85 28.68,62.29 28.43,61.89 C28.40,61.83 28.36,61.78 28.32,61.74 C28.27,61.54 28.19,61.35 28.08,61.14 C26.46,58.12 22.11,54.00 20.55,54.00 C20.41,54.00 20.28,54.01 20.16,54.02 C20.24,54.01 20.31,54.00 20.39,54.00 C21.16,54.00 23.50,51.75 25.60,49.00 C27.70,46.25 29.74,44.00 30.14,44.00 C30.45,44.00 30.81,43.37 31.03,42.49 C31.15,43.32 31.54,43.89 32.09,44.16 C32.32,44.52 32.58,44.88 32.88,45.24 C33.72,46.24 36.24,49.22 38.97,52.44 C40.74,54.56 42.50,56.68 44.17,58.70 C46.02,61.05 47.31,62.87 47.38,63.31 C47.47,63.96 47.87,65.00 48.25,65.60 C48.63,66.21 47.83,67.75 46.47,69.03 C45.69,69.76 44.99,70.54 44.54,71.17 C44.21,71.34 44.00,71.63 44.00,72.05 C44.00,72.08 44.00,72.10 44.01,72.13 C44.00,72.17 44.00,72.20 44.00,72.23 C44.00,73.02 46.44,76.32 49.18,79.60 C49.30,79.75 49.42,79.90 49.54,80.05 C51.77,82.84 53.62,84.82 55.02,85.94 C55.04,85.96 55.07,85.98 55.09,86.00 C55.29,86.58 55.85,87.00 56.50,87.00 C56.51,87.00 56.52,87.00 56.53,87.00 C56.53,87.00 56.54,87.00 56.54,87.00 C56.62,87.00 56.70,87.00 56.78,86.99 C55.00,88.25 52.32,88.33 51.50,87.00 C51.16,86.45 49.56,86.00 47.94,86.00 C46.32,86.00 45.00,86.45 45.00,87.00 C45.00,88.77 41.70,88.06 39.18,85.75 C37.47,84.19 36.59,83.88 36.28,84.75 C35.64,86.53 33.00,86.30 33.00,84.47 C33.00,83.63 33.67,82.68 34.50,82.36 C35.33,82.05 36.00,80.71 36.00,79.39 C36.00,77.67 36.85,76.81 38.65,76.76 C37.34,77.96 38.13,80.52 40.69,83.20 C43.52,86.15 44.53,86.56 45.42,85.12 C46.06,84.09 41.98,78.34 39.92,76.83 C40.03,76.85 40.14,76.86 40.25,76.88 C40.66,76.95 41.00,76.10 41.00,75.01 C41.00,73.91 41.90,72.45 43.00,71.77 C44.31,70.95 45.00,69.44 45.00,67.37 C45.00,63.78 42.71,62.32 40.31,64.24 C40.39,64.15 40.47,64.06 40.53,63.96 ZM 104.00 85.93 C104.00,85.90 104.00,85.86 103.99,85.82 C104.00,85.75 104.00,85.69 104.00,85.62 C104.00,85.54 103.96,85.42 103.89,85.26 C103.72,84.59 103.36,83.68 102.96,82.92 C102.46,81.99 102.06,81.55 101.48,81.52 C100.10,79.61 98.26,77.22 96.25,74.76 C93.66,71.59 90.69,67.89 88.26,64.83 C87.52,63.73 86.38,62.21 85.00,60.44 C84.76,60.12 84.51,59.79 84.25,59.48 L 84.24 59.47 C82.16,56.84 79.64,53.77 77.14,50.79 C76.42,49.90 75.70,49.01 75.00,48.15 C74.14,47.07 73.27,46.06 72.45,45.13 C67.89,39.39 67.05,36.71 69.20,35.38 C69.36,35.28 69.50,35.18 69.66,35.14 C70.43,34.92 71.58,36.04 78.28,44.38 C80.96,47.84 84.46,52.24 88.95,57.80 C89.26,58.19 89.57,58.57 89.86,58.93 C98.64,70.03 104.19,77.02 107.79,81.28 C109.02,82.76 109.97,83.87 110.72,84.69 C110.70,85.00 110.86,85.33 111.17,85.71 C111.75,86.40 112.52,86.82 113.28,86.94 C113.35,86.97 113.42,86.98 113.49,86.99 C113.72,87.11 113.92,87.17 114.10,87.18 C114.08,87.20 114.06,87.21 114.05,87.23 C112.40,88.64 111.88,88.65 109.38,87.35 C107.73,86.50 105.43,86.27 103.84,86.56 C103.94,86.40 104.00,86.19 104.00,85.93 ZM 99.56 36.10 C99.35,35.76 99.10,35.51 98.82,35.33 C95.44,31.19 91.79,26.61 89.97,24.25 C88.62,22.49 87.36,21.14 86.30,20.24 C86.01,19.74 85.42,19.32 84.75,19.19 L 84.74 19.19 C84.59,19.12 84.44,19.06 84.30,19.03 C85.43,18.33 86.60,16.97 87.33,15.43 C87.72,14.62 88.14,13.88 88.53,13.29 C88.50,13.52 88.56,13.81 88.79,14.25 C89.04,14.90 89.59,15.71 90.44,16.75 C92.36,19.34 96.01,23.85 102.62,32.00 C107.29,37.78 112.78,44.65 114.81,47.29 C123.52,58.58 127.69,62.97 130.62,63.89 C130.15,65.07 129.31,66.00 128.53,66.00 C127.84,66.00 126.05,65.04 124.57,63.87 L 121.86 61.75 L 120.53 63.66 C120.51,63.57 120.48,63.48 120.44,63.37 C120.48,63.24 120.50,63.11 120.50,62.99 C120.50,62.14 120.05,61.67 119.47,61.56 C117.26,58.07 111.51,50.75 101.00,38.00 C100.57,37.48 100.13,36.93 99.67,36.38 C99.65,36.28 99.61,36.18 99.56,36.10 ZM 64.34 64.18 C64.07,63.17 62.20,60.44 60.18,58.10 C60.14,58.06 60.10,58.01 60.06,57.97 C59.11,56.74 58.04,55.40 56.88,53.98 C54.77,51.35 52.05,47.98 48.52,43.64 C45.46,39.86 42.49,35.92 41.94,34.89 C41.69,34.42 41.33,34.05 40.91,33.75 C40.98,33.05 40.45,33.00 39.00,33.00 C38.85,33.00 38.70,33.01 38.56,33.04 C37.69,33.08 37.00,33.52 37.00,34.41 C37.00,34.42 37.00,34.44 37.00,34.45 C36.89,35.06 37.08,35.75 37.67,36.33 C37.93,36.60 38.19,36.78 38.43,36.88 C41.15,40.87 47.30,48.88 53.11,56.01 C54.04,57.22 55.13,58.56 56.29,59.92 C57.65,61.84 59.04,63.43 60.28,64.56 C62.35,67.05 65.60,71.18 68.07,74.50 C70.94,78.35 74.43,82.74 75.83,84.25 C78.38,87.01 81.00,87.89 81.00,85.98 C81.00,84.57 66.86,66.00 65.80,66.00 C65.37,66.00 64.78,65.35 64.42,64.51 C64.39,64.40 64.37,64.29 64.34,64.18 ZM 107.31 64.94 C107.33,64.94 107.34,64.94 107.35,64.94 C107.32,64.96 107.28,64.99 107.25,65.02 C105.57,66.34 103.97,66.81 102.60,66.37 C100.92,65.84 100.73,65.98 101.61,67.11 C101.83,67.39 102.42,68.13 103.24,69.16 C102.43,68.23 101.71,67.47 101.16,66.95 C100.25,66.10 98.91,64.38 98.19,63.12 C97.84,62.51 97.02,61.36 95.83,59.79 C95.06,58.73 94.19,57.58 93.25,56.43 C92.71,55.76 92.11,55.02 91.47,54.24 C90.33,52.81 89.07,51.26 87.72,49.62 L 87.72 49.62 C85.60,47.01 83.47,44.39 81.88,42.43 C79.41,39.37 77.49,37.11 75.99,35.50 C74.89,34.14 73.78,32.75 72.78,31.48 L 76.88 27.13 C76.92,27.08 76.97,27.03 77.01,26.99 C77.00,27.10 77.00,27.21 77.00,27.34 L 77.00 27.34 L 77.00 27.36 C77.00,28.57 77.64,29.55 78.46,30.01 C79.47,31.53 80.91,33.51 82.50,35.53 C83.84,37.23 85.11,38.84 86.32,40.36 C86.81,41.00 87.21,41.54 87.50,41.92 C88.33,43.03 89.28,44.27 90.32,45.59 C90.35,45.71 90.40,45.84 90.48,45.98 C90.55,46.09 90.68,46.18 90.84,46.25 C95.35,51.95 101.17,58.89 104.46,62.51 C104.56,62.86 104.76,63.21 105.04,63.54 C105.67,64.31 106.27,64.76 106.81,64.90 C106.89,64.97 106.95,65.00 106.99,65.00 C107.09,65.00 107.20,64.98 107.31,64.94 ZM 108.44 64.09 C108.46,64.07 108.47,64.05 108.48,64.03 C108.50,64.00 108.51,63.98 108.53,63.96 C108.63,63.79 108.69,63.61 108.70,63.39 C108.71,63.36 108.72,63.33 108.73,63.31 C108.75,63.25 108.74,63.16 108.71,63.04 C108.70,62.05 108.16,60.92 107.41,60.36 C106.41,58.83 104.77,56.70 102.27,53.65 C98.80,49.16 97.00,46.00 97.00,44.36 L 97.00 41.69 L 98.87 43.85 C99.89,45.03 101.13,46.01 101.62,46.02 C102.10,46.04 104.88,49.07 107.78,52.77 C111.06,56.95 113.40,59.86 115.12,61.80 C115.73,62.58 116.20,63.21 116.49,63.61 C116.69,63.88 116.90,64.11 117.13,64.30 C117.22,64.77 117.58,64.95 118.25,64.89 C118.45,64.94 118.64,64.96 118.83,64.96 C119.02,65.01 119.18,65.02 119.34,65.00 C117.64,66.38 115.45,66.25 114.00,64.50 C112.52,62.72 110.81,62.61 108.37,64.21 C108.39,64.17 108.42,64.13 108.44,64.09 ZM 59.37 20.70 C60.64,22.31 62.07,24.11 63.60,26.01 C65.54,28.63 66.74,30.61 66.53,30.95 C66.22,31.45 66.47,32.17 67.09,32.56 C68.58,33.48 66.20,35.01 64.37,34.31 C63.66,34.04 60.52,30.48 57.40,26.41 C57.20,26.15 57.00,25.89 56.81,25.65 C55.81,23.52 51.25,19.00 49.88,19.00 C49.20,19.00 48.71,19.05 48.43,19.22 C48.44,19.19 48.45,19.17 48.45,19.15 C48.83,17.97 49.78,17.00 50.57,17.00 C51.36,17.00 52.00,16.10 52.00,15.00 C52.00,13.45 52.67,13.00 54.96,13.00 C55.11,13.00 55.25,13.01 55.39,13.02 C54.59,13.09 54.00,13.30 54.00,13.56 C54.00,13.56 54.00,13.57 54.00,13.57 C54.00,13.59 54.00,13.60 54.00,13.61 C54.00,13.91 56.33,16.97 59.37,20.70 ZM 80.39 26.88 C79.96,26.40 79.53,26.06 79.13,25.85 C78.82,25.63 78.57,25.50 78.36,25.46 C79.90,23.63 81.00,21.97 81.00,21.40 C81.00,20.69 81.94,19.87 83.13,19.51 C83.05,19.72 83.00,20.00 83.00,20.35 C82.88,20.98 83.07,21.74 83.69,22.35 C83.78,22.44 83.87,22.52 83.97,22.58 C84.30,23.13 84.72,23.77 85.22,24.50 C86.86,26.93 89.26,30.07 91.84,33.12 C92.86,34.38 93.97,35.73 95.16,37.15 C96.15,38.60 96.61,39.84 96.37,40.48 C96.05,41.31 95.48,42.00 95.12,42.00 C94.47,42.00 90.63,38.23 85.56,32.65 C84.05,30.71 82.32,28.72 81.13,27.59 C80.91,27.38 80.70,27.19 80.51,27.01 C80.47,26.97 80.43,26.92 80.39,26.88 ZM 121.95 49.91 C127.17,56.57 131.00,61.63 131.00,61.99 C131.00,62.15 130.99,62.31 130.97,62.47 C130.63,61.57 126.96,56.62 122.00,50.19 C122.00,50.11 121.98,50.01 121.95,49.91 ZM 94.35 15.91 C97.64,19.42 110.63,35.51 120.22,47.70 C120.10,47.61 119.98,47.52 119.86,47.44 C110.96,35.99 99.19,21.36 94.35,15.91 ZM 69.24 26.88 C64.53,20.78 61.10,16.77 58.77,14.70 C61.07,16.58 64.17,20.26 69.24,26.88 ZM 89.12 12.50 C89.39,12.18 89.63,12.00 89.78,12.00 C89.97,12.00 90.45,12.31 91.08,12.83 C90.23,12.23 89.61,12.14 89.12,12.50 ZM 113.66 82.58 C113.12,81.75 112.43,80.79 111.59,79.67 C112.54,80.87 113.28,81.83 113.84,82.62 C113.78,82.60 113.72,82.58 113.66,82.58 Z" fill="rgb(194,214,223)" data-index="4" style="visibility: hidden;"></path>
<path d="M 115.21 86.45 C115.24,86.43 115.26,86.40 115.29,86.38 C115.33,86.77 115.31,87.14 115.24,87.50 C114.88,89.43 114.15,90.00 112.08,90.00 C110.61,90.00 108.91,89.51 108.31,88.91 C107.52,88.12 106.65,88.12 105.17,88.91 C102.65,90.26 98.46,90.32 96.07,89.04 C94.87,88.40 93.24,88.46 91.20,89.23 C88.88,90.11 87.52,90.10 85.57,89.21 C83.62,88.32 82.39,88.32 80.45,89.20 C78.48,90.10 77.09,90.07 74.35,89.08 C71.77,88.15 70.50,88.10 69.70,88.90 C68.25,90.35 64.45,90.30 62.05,88.80 C60.52,87.85 59.58,87.89 57.53,88.99 C55.37,90.14 54.32,90.16 51.37,89.09 C48.77,88.15 47.50,88.10 46.70,88.90 C45.07,90.53 40.92,90.24 38.83,88.35 C37.13,86.81 36.87,86.81 35.17,88.35 C33.28,90.06 30.83,90.50 29.67,89.33 C27.98,87.64 29.43,84.35 34.50,78.37 C40.31,71.52 41.48,68.00 37.95,68.00 C36.82,68.00 34.53,67.29 32.86,66.43 C30.05,64.98 29.67,64.99 27.89,66.60 C26.07,68.25 25.76,68.25 22.41,66.66 C19.08,65.07 18.69,65.07 16.00,66.66 C13.62,68.06 12.86,68.13 11.57,67.05 C8.99,64.92 9.77,62.72 14.59,58.50 C17.10,56.30 19.86,53.15 20.72,51.50 C22.70,47.67 28.88,40.70 31.07,39.83 C31.99,39.46 33.05,37.95 33.42,36.47 C33.99,34.20 41.10,24.89 47.90,17.50 C48.92,16.40 50.53,14.26 51.49,12.75 C52.45,11.24 54.01,10.00 54.96,10.00 C56.66,10.00 60.00,12.93 60.00,14.41 C60.00,14.79 61.67,17.24 63.83,20.04 C61.72,17.50 60.11,15.79 58.77,14.70 C57.49,13.56 56.55,13.00 55.92,13.00 C55.74,13.00 55.56,13.01 55.39,13.02 C55.25,13.01 55.11,13.00 54.96,13.00 C52.67,13.00 52.00,13.45 52.00,15.00 C52.00,16.10 51.36,17.00 50.57,17.00 C49.78,17.00 48.83,17.97 48.45,19.15 C48.45,19.17 48.44,19.19 48.43,19.22 C48.29,19.30 48.20,19.41 48.16,19.56 C48.06,19.68 48.00,19.81 48.00,19.95 C48.00,19.98 48.01,20.02 48.03,20.08 C47.33,21.36 45.99,23.18 44.64,24.60 C44.44,24.81 44.23,25.03 44.02,25.26 C43.62,25.24 43.24,25.36 42.91,25.69 C42.91,25.69 42.90,25.70 42.90,25.70 C42.89,25.71 42.89,25.71 42.88,25.72 C42.67,25.93 42.52,26.15 42.43,26.40 C42.34,26.62 42.31,26.86 42.33,27.13 C41.21,28.38 40.15,29.63 39.50,30.44 C38.40,31.84 36.91,32.98 36.19,32.99 C35.47,33.00 34.95,33.79 35.05,34.75 C35.43,38.46 35.03,39.90 33.56,39.83 C33.25,39.68 32.97,39.59 32.71,39.55 C31.72,39.34 31.12,39.91 31.05,40.92 C31.04,41.02 31.04,41.13 31.04,41.24 C31.01,41.46 31.00,41.71 31.00,41.98 C31.00,42.16 31.01,42.33 31.03,42.49 C30.81,43.37 30.45,44.00 30.14,44.00 C29.74,44.00 27.70,46.25 25.60,49.00 C23.50,51.75 21.16,54.00 20.39,54.00 C20.31,54.00 20.24,54.01 20.16,54.02 C19.50,54.09 19.15,54.36 19.10,54.85 C19.04,55.01 19.00,55.18 19.00,55.37 C19.00,56.12 18.10,57.87 17.00,59.27 C14.51,62.43 14.47,63.30 16.84,62.55 C17.92,62.21 19.74,62.80 21.25,63.98 C24.20,66.30 28.00,66.65 28.00,64.61 C28.00,62.27 30.94,61.90 32.75,64.02 C34.77,66.38 37.70,66.57 40.02,64.49 C40.12,64.41 40.22,64.33 40.31,64.24 C42.71,62.32 45.00,63.78 45.00,67.37 C45.00,69.44 44.31,70.95 43.00,71.77 C41.90,72.45 41.00,73.91 41.00,75.01 C41.00,76.10 40.66,76.95 40.25,76.88 C40.14,76.86 40.03,76.85 39.92,76.83 C39.50,76.53 39.16,76.40 38.97,76.52 C38.85,76.59 38.74,76.67 38.65,76.76 C36.85,76.81 36.00,77.67 36.00,79.39 C36.00,80.71 35.33,82.05 34.50,82.36 C33.67,82.68 33.00,83.63 33.00,84.47 C33.00,86.30 35.64,86.53 36.28,84.75 C36.59,83.88 37.47,84.19 39.18,85.75 C41.70,88.06 45.00,88.77 45.00,87.00 C45.00,86.45 46.32,86.00 47.94,86.00 C49.56,86.00 51.16,86.45 51.50,87.00 C52.32,88.33 55.00,88.25 56.78,86.99 C56.80,86.99 56.81,86.98 56.83,86.98 C57.36,87.10 57.72,86.92 57.89,86.42 C57.96,86.30 58.00,86.18 58.00,86.05 C58.00,86.01 58.00,85.97 58.00,85.93 C58.68,85.39 59.41,85.00 59.81,85.00 C60.33,85.00 61.32,85.68 62.00,86.50 C63.39,88.17 68.00,88.56 68.00,87.00 C68.00,85.49 73.23,85.86 75.44,87.53 C77.98,89.45 78.61,89.39 81.04,86.96 C83.01,84.99 83.16,84.98 86.08,86.71 C88.12,87.91 89.31,88.14 89.79,87.40 C90.93,85.66 94.83,85.09 95.99,86.49 C97.25,88.01 102.00,89.10 102.00,87.88 C102.00,87.50 102.25,87.19 102.66,86.96 C102.75,86.97 102.83,86.98 102.92,86.98 C103.24,87.01 103.50,86.94 103.68,86.74 L 103.68 86.74 C103.74,86.69 103.79,86.63 103.84,86.56 C105.43,86.27 107.73,86.50 109.38,87.35 C111.88,88.65 112.40,88.64 114.05,87.23 C114.06,87.21 114.08,87.20 114.10,87.18 C114.58,87.21 114.89,86.91 115.21,86.45 ZM 120.50 64.00 C120.54,63.93 120.55,63.81 120.53,63.66 L 121.86 61.75 L 124.57 63.87 C126.05,65.04 127.84,66.00 128.53,66.00 C129.31,66.00 130.15,65.07 130.62,63.89 C130.66,63.90 130.71,63.92 130.75,63.93 C130.82,63.95 130.89,63.78 130.94,63.50 C130.98,63.69 131.00,63.86 131.00,64.02 C131.00,67.83 129.58,68.51 124.86,66.95 C121.87,65.97 120.66,65.94 119.77,66.83 C118.34,68.26 114.35,68.37 113.50,67.00 C111.89,64.39 105.99,67.60 106.01,71.08 C106.01,71.76 107.67,74.47 109.87,77.43 C109.72,77.24 109.57,77.04 109.41,76.85 C109.30,76.71 109.19,76.57 109.09,76.44 C107.08,73.79 104.94,71.11 103.24,69.16 C102.42,68.13 101.83,67.39 101.61,67.11 C100.73,65.98 100.92,65.84 102.60,66.37 C103.97,66.81 105.57,66.34 107.25,65.02 C107.28,64.99 107.32,64.96 107.35,64.94 C107.73,64.88 108.07,64.64 108.37,64.21 C110.81,62.61 112.52,62.72 114.00,64.50 C115.45,66.25 117.64,66.38 119.34,65.00 C119.80,64.93 120.15,64.57 120.50,64.00 ZM 77.71 25.71 C77.30,25.81 77.06,26.23 77.01,26.99 C76.97,27.03 76.92,27.08 76.88,27.13 L 72.78 31.48 C72.07,30.57 71.42,29.73 70.86,29.00 C70.31,28.27 69.77,27.56 69.24,26.88 C68.13,25.42 67.11,24.11 66.17,22.92 C70.48,27.88 72.72,27.76 77.02,23.40 C82.93,17.41 84.50,15.60 86.31,12.75 C87.26,11.24 88.63,10.00 89.35,10.00 C90.71,10.00 95.00,14.08 95.00,15.38 C95.00,15.71 100.50,22.88 107.98,32.33 C101.82,24.69 96.33,18.02 94.35,15.91 C93.58,15.05 92.99,14.42 92.61,14.06 C92.15,13.64 91.74,13.30 91.36,13.03 C91.26,12.96 91.17,12.89 91.08,12.83 C90.45,12.31 89.97,12.00 89.78,12.00 C89.63,12.00 89.39,12.18 89.12,12.50 C89.06,12.54 89.01,12.59 88.96,12.64 C88.96,12.64 88.95,12.65 88.95,12.65 C88.95,12.65 88.95,12.65 88.95,12.65 C88.80,12.80 88.67,12.93 88.60,13.08 C88.56,13.14 88.54,13.21 88.53,13.29 C88.14,13.88 87.72,14.62 87.33,15.43 C86.60,16.97 85.43,18.33 84.35,19.16 C83.85,19.17 83.46,19.42 83.13,19.51 C81.94,19.87 81.00,20.69 81.00,21.40 C81.00,21.97 79.90,23.63 78.36,25.46 C78.12,25.41 77.93,25.49 77.77,25.68 Z" fill="rgb(219,233,238)" data-index="5" style="opacity: 1; visibility: visible;"></path>

<path d="M 0.00 54.00 L 0.00 0.00 L 72.00 0.00 L 144.00 0.00 L 144.00 54.00 L 144.00 108.00 L 72.00 108.00 L 0.00 108.00 L 0.00 54.00 ZM 38.70 92.11 C40.44,93.04 41.87,93.06 44.80,92.18 C47.70,91.31 49.38,91.32 51.76,92.21 C54.25,93.16 55.41,93.12 57.44,92.03 C59.46,90.95 60.52,90.92 62.60,91.86 C64.63,92.79 65.97,92.78 68.65,91.81 C71.41,90.81 72.48,90.82 74.15,91.86 C75.80,92.89 76.81,92.91 79.15,91.94 C81.44,90.99 82.67,90.99 84.71,91.91 C86.74,92.84 87.98,92.84 90.22,91.91 C92.48,90.97 93.93,90.99 96.96,91.99 C99.68,92.88 101.65,92.97 103.66,92.27 C105.52,91.63 107.26,91.63 108.69,92.27 C112.00,93.76 115.77,92.34 117.53,88.94 C119.41,85.31 118.72,82.52 115.42,80.36 C114.04,79.45 113.00,77.80 113.00,76.51 C113.00,75.26 112.32,73.68 111.50,73.00 C107.91,70.02 109.79,69.30 120.52,69.56 C132.61,69.86 134.00,69.18 134.00,62.98 C134.00,59.75 133.44,58.67 130.61,56.52 C128.75,55.10 125.95,52.04 124.38,49.72 C122.81,47.40 119.88,43.47 117.87,41.00 C115.87,38.53 113.92,35.51 113.56,34.30 C113.20,33.09 112.02,31.82 110.95,31.48 C109.88,31.14 109.00,30.29 109.00,29.58 C109.00,28.24 105.96,24.41 99.96,18.17 C98.01,16.15 95.64,13.26 94.69,11.75 C92.87,8.86 89.46,8.15 86.10,9.95 C85.12,10.47 82.39,13.40 80.03,16.46 C74.47,23.66 71.98,24.33 67.34,19.88 C65.41,18.02 63.18,15.27 62.39,13.76 C61.60,12.25 59.84,10.29 58.47,9.39 C56.37,8.01 55.52,7.96 52.96,9.02 C51.29,9.71 49.46,11.15 48.89,12.21 C48.32,13.28 46.30,15.80 44.41,17.83 C33.61,29.38 30.05,33.68 30.03,35.25 C30.01,36.44 29.20,37.00 27.50,37.00 C25.13,37.00 24.54,37.86 24.94,40.79 C25.03,41.50 23.96,43.53 22.56,45.29 C20.31,48.13 18.92,49.65 15.06,53.50 C10.33,58.22 7.89,62.19 8.18,64.68 C8.62,68.47 12.83,70.81 16.68,69.41 C18.73,68.66 20.36,68.73 22.62,69.65 C25.06,70.64 26.43,70.66 28.87,69.74 C31.51,68.75 32.25,68.83 33.67,70.25 C35.25,71.82 35.23,72.15 33.43,75.51 C32.37,77.48 30.26,80.29 28.75,81.74 C23.30,86.96 27.12,94.34 33.96,91.80 C35.61,91.19 37.17,91.29 38.70,92.11 Z" fill="rgb(254,254,254)" data-index="7" style="visibility: hidden;"></path>
</g>
</svg>